JosefinSlab-Italic-TTF.ufo
<glyph name="numbersign" format="1">
  <advance width="571"/>
  <unicode hex="0023"/>
  <outline>
    <contour>
      <point x="208" y="393" type="line" name="ih01"/>
      <point x="199" y="357"/>
      <point x="181" y="286"/>
      <point x="171" y="251" type="qcurve" name="ih02"/>
      <point x="313" y="251" type="line" name="ih03"/>
      <point x="323" y="286"/>
      <point x="341" y="357"/>
      <point x="350" y="393" type="qcurve" name="ih04"/>
    </contour>
    <contour>
      <point x="248" y="0" type="line" name="sh04"/>
      <point x="302" y="210" type="line" name="ih05"/>
      <point x="160" y="210" type="line" name="ih06"/>
      <point x="106" y="0" type="line" name="sh03"/>
      <point x="64" y="0" type="line" name="ah01"/>
      <point x="118" y="210" type="line" name="ih07"/>
      <point x="11" y="210" type="line" name="sh06"/>
      <point x="14" y="221"/>
      <point x="19" y="240"/>
      <point x="22" y="251" type="qcurve"/>
      <point x="129" y="251" type="line" name="ih08"/>
      <point x="139" y="286"/>
      <point x="157" y="357"/>
      <point x="166" y="393" type="qcurve" name="ih09"/>
      <point x="60" y="393" type="line" name="sh07"/>
      <point x="62" y="403"/>
      <point x="67" y="423"/>
      <point x="69" y="433" type="qcurve"/>
      <point x="176" y="433" type="line" name="ih10"/>
      <point x="190" y="486"/>
      <point x="218" y="590"/>
      <point x="232" y="643" type="qcurve" name="sh01"/>
      <point x="274" y="643" type="line" name="sh02"/>
      <point x="260" y="590"/>
      <point x="232" y="486"/>
      <point x="218" y="433" type="qcurve" name="ih11"/>
      <point x="360" y="433" type="line" name="ih12"/>
      <point x="374" y="486"/>
      <point x="402" y="590"/>
      <point x="416" y="643" type="qcurve" name="sh05"/>
      <point x="458" y="643" type="line" name="sh08"/>
      <point x="444" y="590"/>
      <point x="416" y="486"/>
      <point x="402" y="433" type="qcurve" name="ih13"/>
      <point x="525" y="433" type="line"/>
      <point x="523" y="423"/>
      <point x="517" y="403"/>
      <point x="515" y="393" type="qcurve" name="sh10"/>
      <point x="392" y="393" type="line" name="ih14"/>
      <point x="383" y="357"/>
      <point x="365" y="286"/>
      <point x="355" y="251" type="qcurve" name="ih15"/>
      <point x="477" y="251" type="line"/>
      <point x="475" y="240"/>
      <point x="469" y="221"/>
      <point x="467" y="210" type="qcurve" name="sh11"/>
      <point x="344" y="210" type="line" name="ih16"/>
      <point x="290" y="0" type="line" name="sh09"/>
    </contour>
  </outline>
</glyph>
<glyph name="dollar" format="1">
  <advance width="567"/>
  <unicode hex="0024"/>
  <outline>
    <contour>
      <point x="388" y="546" type="line" name="sh01"/>
      <point x="401" y="634" type="line" name="sh02"/>
      <point x="386" y="645" name="fh01"/>
      <point x="337" y="661"/>
      <point x="303" y="663" type="qcurve" name="ih03"/>
      <point x="265" y="387" type="line" name="ih04"/>
      <point x="298" y="376"/>
      <point x="363" y="351" name="fh02"/>
      <point x="387.5" y="329.0" type="qcurve" smooth="yes" name="inserted"/>
      <point x="412" y="307" name="fh03"/>
      <point x="437" y="239"/>
      <point x="431" y="186" type="qcurve" name="dh02"/>
      <point x="425" y="144" name="fh04"/>
      <point x="385" y="74" name="fh05"/>
      <point x="355.0" y="49.0" type="qcurve" smooth="yes" name="inserted"/>
      <point x="325" y="24" name="fh06"/>
      <point x="250" y="-5"/>
      <point x="209" y="-7" type="qcurve" name="ih05"/>
      <point x="200" y="-68" type="line" name="sh06"/>
      <point x="159" y="-68" type="line" name="ih02"/>
      <point x="167" y="-6" type="line" name="ih06"/>
      <point x="132" y="-4"/>
      <point x="77" y="13"/>
      <point x="55.5" y="25.0" type="qcurve" smooth="yes" name="inserted"/>
      <point x="34" y="37"/>
      <point x="5" y="64"/>
      <point x="-2" y="76" type="qcurve" name="sh07"/>
      <point x="12" y="182" type="line" name="sh03"/>
      <point x="52" y="182" type="line" name="sh08"/>
      <point x="39" y="92" type="line" name="sh09"/>
      <point x="61" y="69" name="fh07"/>
      <point x="125" y="36"/>
      <point x="173" y="34" type="qcurve" name="ih07"/>
      <point x="219" y="357" type="line" name="ih08"/>
      <point x="190" y="366"/>
      <point x="137" y="389" name="fh08"/>
      <point x="117.5" y="406.5" type="qcurve" smooth="yes" name="inserted"/>
      <point x="98" y="424" name="fh09"/>
      <point x="78" y="477"/>
      <point x="82" y="517" type="qcurve" name="dh01"/>
      <point x="85" y="548"/>
      <point x="111" y="611" name="fh10"/>
      <point x="134.0" y="637.0" type="qcurve" smooth="yes" name="inserted"/>
      <point x="157" y="663" name="fh11"/>
      <point x="224" y="699"/>
      <point x="268" y="702" type="qcurve" name="ih09"/>
      <point x="276" y="764" type="line" name="sh04"/>
      <point x="317" y="764" type="line" name="sh05"/>
      <point x="309" y="703" type="line" name="ih10"/>
      <point x="341" y="701"/>
      <point x="414" y="681"/>
      <point x="443" y="654" type="qcurve" name="sh10"/>
      <point x="428" y="546" type="line" name="ih01"/>
    </contour>
    <contour>
      <point x="388" y="184" type="qcurve" name="sh11"/>
      <point x="394" y="224"/>
      <point x="376" y="278" name="fh12"/>
      <point x="357.0" y="295.5" type="qcurve" smooth="yes" name="inserted"/>
      <point x="338" y="313" name="fh13"/>
      <point x="287" y="335"/>
      <point x="259" y="344" type="qcurve" name="ih11"/>
      <point x="214" y="34" type="line" name="ih12"/>
      <point x="245" y="37"/>
      <point x="303" y="60" name="fv01"/>
      <point x="327.0" y="79.0" type="qcurve" smooth="yes" name="inserted"/>
      <point x="351" y="98"/>
      <point x="383" y="151"/>
    </contour>
    <contour>
      <point x="125" y="524" type="qcurve" name="sh12"/>
      <point x="121" y="495"/>
      <point x="135" y="456" name="fh14"/>
      <point x="149.0" y="442.0" type="qcurve" smooth="yes" name="inserted"/>
      <point x="163" y="428"/>
      <point x="202" y="409" name="fh15"/>
      <point x="225" y="401" type="qcurve" name="ih13"/>
      <point x="262" y="660" type="line" name="ih14"/>
      <point x="232" y="657" name="fh16"/>
      <point x="184" y="632" name="fv02"/>
      <point x="167.0" y="613.5" type="qcurve" smooth="yes" name="inserted"/>
      <point x="150" y="595" name="fh17"/>
      <point x="128" y="549"/>
    </contour>
  </outline>
</glyph>
<glyph name="percent" format="1">
  <advance width="726"/>
  <unicode hex="0025"/>
  <outline>
    <contour>
      <point x="427" y="112" type="qcurve" name="sh01"/>
      <point x="422" y="80"/>
      <point x="460" y="37" name="fh01"/>
      <point x="492" y="37" type="qcurve" name="sv01"/>
      <point x="524" y="37"/>
      <point x="572" y="80"/>
      <point x="577" y="112" type="qcurve" name="sh03"/>
      <point x="582" y="143"/>
      <point x="544" y="187" name="fh02"/>
      <point x="512" y="187" type="qcurve" name="sv03"/>
      <point x="480" y="187"/>
      <point x="432" y="143"/>
    </contour>
    <contour>
      <point x="486" y="-4" type="qcurve" name="ab01"/>
      <point x="462" y="-4"/>
      <point x="422" y="14"/>
      <point x="408.0" y="29.5" type="qcurve" smooth="yes" name="inserted"/>
      <point x="394" y="45"/>
      <point x="382" y="88"/>
      <point x="385" y="112" type="qcurve" name="ah02"/>
      <point x="388" y="136"/>
      <point x="413" y="178" name="fh03"/>
      <point x="431.0" y="193.5" type="qcurve" smooth="yes" name="inserted"/>
      <point x="449" y="209" name="fh04"/>
      <point x="494" y="227"/>
      <point x="518" y="227" type="qcurve" name="sv02"/>
      <point x="542" y="227"/>
      <point x="582" y="209"/>
      <point x="596.0" y="193.5" type="qcurve" smooth="yes" name="inserted"/>
      <point x="610" y="178"/>
      <point x="623" y="136"/>
      <point x="619" y="112" type="qcurve" name="sh02"/>
      <point x="616" y="88"/>
      <point x="591" y="45" name="fh05"/>
      <point x="573.0" y="29.5" type="qcurve" smooth="yes" name="inserted"/>
      <point x="555" y="14" name="fh06"/>
      <point x="510" y="-4"/>
    </contour>
    <contour>
      <point x="162" y="388" type="qcurve" name="sh04"/>
      <point x="157" y="357"/>
      <point x="195" y="314" name="fh07"/>
      <point x="227" y="314" type="qcurve" name="sv05"/>
      <point x="259" y="314"/>
      <point x="307" y="357"/>
      <point x="312" y="388" type="qcurve" name="sh06"/>
      <point x="317" y="420"/>
      <point x="279" y="463" name="fh08"/>
      <point x="247" y="463" type="qcurve" name="sv06"/>
      <point x="215" y="463"/>
      <point x="167" y="420" name="fh09"/>
    </contour>
    <contour>
      <point x="221" y="273" type="qcurve" name="sv04"/>
      <point x="197" y="273"/>
      <point x="157" y="291"/>
      <point x="143.0" y="306.5" type="qcurve" smooth="yes" name="inserted"/>
      <point x="129" y="322"/>
      <point x="116" y="365"/>
      <point x="120" y="389" type="qcurve" name="ah01"/>
      <point x="123" y="413"/>
      <point x="148" y="455" name="fh10"/>
      <point x="166.0" y="470.5" type="qcurve" smooth="yes" name="inserted"/>
      <point x="184" y="486" name="fh11"/>
      <point x="229" y="504"/>
      <point x="253" y="504" type="qcurve" name="av01"/>
      <point x="277" y="504"/>
      <point x="317" y="486"/>
      <point x="330.5" y="470.5" type="qcurve" smooth="yes" name="inserted"/>
      <point x="344" y="455"/>
      <point x="357" y="413"/>
      <point x="354" y="389" type="qcurve" name="sh05"/>
      <point x="351" y="365"/>
      <point x="326" y="322" name="fh12"/>
      <point x="308.0" y="306.5" type="qcurve" smooth="yes" name="inserted"/>
      <point x="290" y="291" name="fh13"/>
      <point x="245" y="273"/>
    </contour>
    <contour>
      <point x="158" y="0" type="line" name="ih01"/>
      <point x="251" y="126"/>
      <point x="434" y="374"/>
      <point x="527" y="500" type="qcurve" name="sh08"/>
      <point x="573" y="500" type="line" name="sh07"/>
      <point x="480" y="374"/>
      <point x="297" y="126"/>
      <point x="204" y="0" type="qcurve" name="sh09"/>
    </contour>
  </outline>
</glyph>
<glyph name="ampersand" format="1">
  <advance width="700"/>
  <unicode hex="0026"/>
  <outline>
    <contour>
      <point x="456" y="375" type="line" name="sh02"/>
      <point x="600" y="375" type="line"/>
      <point x="594" y="334" type="line" name="sh04"/>
      <point x="493" y="334" type="line" name="sh03"/>
      <point x="483" y="266" type="line"/>
      <point x="479" y="230" name="dh02"/>
      <point x="465" y="146"/>
      <point x="442" y="108" type="qcurve" name="ih02"/>
      <point x="492" y="3" type="line" name="sh06"/>
      <point x="457" y="-19" type="line" name="sh07"/>
      <point x="415" y="68" type="line" name="ih03"/>
      <point x="383" y="33"/>
      <point x="296" y="-8"/>
      <point x="248" y="-8" type="qcurve" name="ab01"/>
      <point x="210" y="-8"/>
      <point x="148" y="17" name="fh01"/>
      <point x="125.0" y="39.5" type="qcurve" smooth="yes" name="inserted"/>
      <point x="102" y="62" name="fh02"/>
      <point x="77" y="123"/>
      <point x="77" y="158" type="qcurve" name="dh01"/>
      <point x="77" y="199"/>
      <point x="107" y="274" name="fh03"/>
      <point x="133.0" y="303.0" type="qcurve" smooth="yes" name="inserted"/>
      <point x="159" y="332" name="fh04"/>
      <point x="229" y="372"/>
      <point x="268" y="379" type="qcurve" name="ih04"/>
      <point x="213" y="496" type="line"/>
      <point x="204.0" y="514.5" name="inserted"/>
      <point x="195.0" y="553.0"/>
      <point x="195" y="573" type="qcurve" name="ih01"/>
      <point x="195" y="600"/>
      <point x="219" y="662" name="fh05"/>
      <point x="242.0" y="688.0" type="qcurve" smooth="yes" name="inserted"/>
      <point x="265" y="714" name="fh06"/>
      <point x="333" y="748"/>
      <point x="377" y="748" type="qcurve" name="at01"/>
      <point x="414" y="748"/>
      <point x="477" y="722"/>
      <point x="500" y="706" type="qcurve" name="ih05"/>
      <point x="478" y="672" type="line" name="sv01"/>
      <point x="456" y="686" name="fh07"/>
      <point x="402" y="709"/>
      <point x="372" y="709" type="qcurve" name="sv02"/>
      <point x="339" y="709"/>
      <point x="288" y="681" name="fh08"/>
      <point x="271.0" y="660.0" type="qcurve" smooth="yes" name="inserted"/>
      <point x="254" y="639"/>
      <point x="237" y="591"/>
      <point x="237" y="572" type="qcurve" name="sh05"/>
      <point x="237.0" y="555.5" name="inserted"/>
      <point x="244.5" y="523.5"/>
      <point x="252" y="508" type="qcurve"/>
      <point x="413" y="168" type="line" name="ih06"/>
      <point x="421.5" y="180.0" name="inserted"/>
      <point x="432.5" y="207.5"/>
      <point x="435" y="223" type="qcurve" name="sh01"/>
    </contour>
    <contour>
      <point x="120" y="187" type="qcurve"/>
      <point x="119" y="181"/>
      <point x="118" y="169"/>
      <point x="118" y="164" type="qcurve" name="sh08"/>
      <point x="118" y="136"/>
      <point x="138" y="88" name="fh09"/>
      <point x="156.0" y="70.5" type="qcurve" smooth="yes" name="inserted"/>
      <point x="174" y="53" name="fh10"/>
      <point x="224" y="33"/>
      <point x="254" y="33" type="qcurve" name="sv03"/>
      <point x="297" y="33"/>
      <point x="372" y="74"/>
      <point x="396" y="107" type="qcurve" name="ih07"/>
      <point x="286" y="341" type="line" name="ih08"/>
      <point x="254" y="338"/>
      <point x="198" y="313" name="fh11"/>
      <point x="175.5" y="293.0" type="qcurve" smooth="yes" name="inserted"/>
      <point x="153" y="273" name="fh12"/>
      <point x="124" y="219"/>
    </contour>
  </outline>
</glyph>
<glyph name="parenleft" format="1">
  <advance width="406"/>
  <unicode hex="0028"/>
  <outline>
    <contour>
      <point x="134" y="292" type="qcurve" name="ah01"/>
      <point x="144" y="367"/>
      <point x="191" y="503" name="fh01"/>
      <point x="222.5" y="561.0" type="qcurve" smooth="yes" name="inserted"/>
      <point x="254" y="619"/>
      <point x="326" y="714"/>
      <point x="362" y="747" type="qcurve" name="sh02"/>
      <point x="369" y="741"/>
      <point x="383" y="730"/>
      <point x="390" y="724" type="qcurve" name="sh01"/>
      <point x="357" y="691" name="fh02"/>
      <point x="289" y="601"/>
      <point x="259.5" y="546.0" type="qcurve" smooth="yes" name="inserted"/>
      <point x="230" y="491"/>
      <point x="186" y="363" name="fh03"/>
      <point x="176" y="292" type="qcurve" name="sh03"/>
      <point x="166" y="221"/>
      <point x="174" y="93"/>
      <point x="188.0" y="38.0" type="qcurve" smooth="yes" name="inserted"/>
      <point x="202" y="-17" name="fh04"/>
      <point x="245" y="-107"/>
      <point x="269" y="-140" type="qcurve" name="sh04"/>
      <point x="261" y="-146"/>
      <point x="243" y="-157" name="mh01"/>
      <point x="235" y="-163" type="qcurve" name="sh05"/>
      <point x="208" y="-130"/>
      <point x="162" y="-35" name="fh05"/>
      <point x="147.0" y="23.0" type="qcurve" smooth="yes" name="inserted"/>
      <point x="132" y="81"/>
      <point x="123" y="217"/>
    </contour>
  </outline>
</glyph>
<glyph name="parenright" format="1">
  <advance width="400"/>
  <unicode hex="0029"/>
  <outline>
    <contour>
      <point x="292" y="290" type="qcurve" name="ah01"/>
      <point x="281" y="215"/>
      <point x="234" y="79" name="fh01"/>
      <point x="202.5" y="21.0" type="qcurve" smooth="yes" name="inserted"/>
      <point x="171" y="-37"/>
      <point x="99" y="-132"/>
      <point x="63" y="-165" type="qcurve" name="sh02"/>
      <point x="56" y="-159"/>
      <point x="42" y="-148"/>
      <point x="35" y="-142" type="qcurve" name="sh01"/>
      <point x="68" y="-109"/>
      <point x="136" y="-19" name="fh02"/>
      <point x="165.5" y="36.0" type="qcurve" smooth="yes" name="inserted"/>
      <point x="195" y="91"/>
      <point x="240" y="219"/>
      <point x="250" y="290" type="qcurve" name="sh03"/>
      <point x="260" y="361"/>
      <point x="251" y="489"/>
      <point x="237.0" y="544.0" type="qcurve" smooth="yes" name="inserted"/>
      <point x="223" y="599" name="fh03"/>
      <point x="180" y="689"/>
      <point x="156" y="722" type="qcurve" name="sh04"/>
      <point x="164" y="728"/>
      <point x="182" y="739"/>
      <point x="190" y="745" type="qcurve" name="sh05"/>
      <point x="217" y="712"/>
      <point x="263" y="617"/>
      <point x="278.0" y="559.0" type="qcurve" smooth="yes" name="inserted"/>
      <point x="293" y="501"/>
      <point x="302" y="365"/>
    </contour>
  </outline>
</glyph>
<glyph name="asterisk" format="1">
  <advance width="335"/>
  <unicode hex="002A"/>
  <outline>
    <contour>
      <point x="208" y="575" type="qcurve"/>
      <point x="230" y="562"/>
      <point x="272" y="536"/>
      <point x="293" y="522" type="qcurve"/>
      <point x="287" y="513"/>
      <point x="273" y="494"/>
      <point x="266" y="484" type="qcurve"/>
      <point x="182" y="538" type="line" name="ih01"/>
      <point x="177" y="512"/>
      <point x="170" y="460"/>
      <point x="165" y="434" type="qcurve" name="sh02"/>
      <point x="125" y="434" type="line" name="sh01"/>
      <point x="140" y="538" type="line" name="ih02"/>
      <point x="116.0" y="525.5" name="inserted"/>
      <point x="67.0" y="499.5"/>
      <point x="42" y="486" type="qcurve"/>
      <point x="38" y="496"/>
      <point x="30" y="515"/>
      <point x="26" y="525" type="qcurve"/>
      <point x="50" y="538"/>
      <point x="99" y="563"/>
      <point x="124" y="576" type="qcurve"/>
      <point x="103" y="590"/>
      <point x="62" y="616"/>
      <point x="41" y="630" type="qcurve"/>
      <point x="47" y="639"/>
      <point x="60" y="657"/>
      <point x="65" y="665" type="qcurve"/>
      <point x="87" y="651"/>
      <point x="129" y="625"/>
      <point x="150" y="611" type="qcurve" name="ih03"/>
      <point x="166" y="720" type="line" name="ah01"/>
      <point x="210" y="720" type="line" name="sh03"/>
      <point x="205" y="693"/>
      <point x="198" y="639"/>
      <point x="193" y="611" type="qcurve" name="ih04"/>
      <point x="219" y="625"/>
      <point x="269" y="651"/>
      <point x="294" y="664" type="qcurve"/>
      <point x="298.5" y="656.0" name="inserted"/>
      <point x="306.0" y="638.5"/>
      <point x="309" y="629" type="qcurve"/>
      <point x="284" y="615"/>
      <point x="234" y="589"/>
    </contour>
  </outline>
</glyph>
<glyph name="comma" format="1">
  <advance width="200"/>
  <unicode hex="002C"/>
  <outline>
    <contour>
      <point x="155" y="86" type="line" name="sh01"/>
      <point x="126" y="34"/>
      <point x="69" y="-68"/>
      <point x="40" y="-120" type="qcurve" name="sh02"/>
      <point x="2" y="-120" type="line" name="ah01"/>
      <point x="29" y="-68"/>
      <point x="81" y="34"/>
      <point x="108" y="86" type="qcurve" name="sh03"/>
    </contour>
  </outline>
</glyph>
<glyph name="period" format="1">
  <advance width="163"/>
  <unicode hex="002E"/>
  <outline>
    <contour>
      <point x="52" y="33" type="qcurve" name="ah01"/>
      <point x="54" y="47"/>
      <point x="77" y="66"/>
      <point x="90" y="66" type="qcurve" name="sv01"/>
      <point x="102" y="66"/>
      <point x="120" y="47"/>
      <point x="118" y="33" type="qcurve" name="sh01"/>
      <point x="116" y="19"/>
      <point x="93" y="0"/>
      <point x="81" y="0" type="qcurve" name="ab01"/>
      <point x="68" y="0"/>
      <point x="50" y="19"/>
    </contour>
  </outline>
</glyph>
<glyph name="slash" format="1">
  <advance width="345"/>
  <unicode hex="002F"/>
  <outline>
    <contour>
      <point x="-36" y="-19" type="line" name="ah01"/>
      <point x="61" y="171"/>
      <point x="251" y="546"/>
      <point x="348" y="736" type="qcurve" name="sh02"/>
      <point x="390" y="736" type="line" name="sh01"/>
      <point x="293" y="546"/>
      <point x="103" y="171"/>
      <point x="6" y="-19" type="qcurve" name="sh03"/>
    </contour>
  </outline>
</glyph>
<glyph name="one" format="1">
  <advance width="265"/>
  <unicode hex="0031"/>
  <outline>
    <contour>
      <point x="9" y="40" type="line" name="sh01"/>
      <point x="89" y="40" type="line" name="dh01"/>
      <point x="168" y="609" type="line" name="sh02"/>
      <point x="73" y="609" type="line" name="sh03"/>
      <point x="79" y="650" type="line" name="at01"/>
      <point x="216" y="650" type="line" name="sh04"/>
      <point x="131" y="40" type="line" name="dh02"/>
      <point x="210" y="40" type="line" name="sh05"/>
      <point x="205" y="0" type="line"/>
      <point x="4" y="0" type="line" name="ab01"/>
    </contour>
  </outline>
</glyph>
<glyph name="two" format="1">
  <advance width="505"/>
  <unicode hex="0032"/>
  <outline>
    <contour>
      <point x="114" y="41" type="qcurve" name="sh02"/>
      <point x="387" y="41" type="line" name="sh05"/>
      <point x="402" y="146" type="line" name="sh04"/>
      <point x="442" y="146" type="line" name="sh03"/>
      <point x="421" y="0" type="line" name="sh06"/>
      <point x="6" y="0" type="line" name="sh01"/>
      <point x="78" y="62"/>
      <point x="214" y="181" name="iv01"/>
      <point x="268.0" y="237.5" type="qcurve" smooth="yes" name="inserted"/>
      <point x="322" y="294" name="fh01"/>
      <point x="393" y="399"/>
      <point x="400" y="446" type="qcurve" name="sh07"/>
      <point x="407" y="495"/>
      <point x="387" y="560" name="fh02"/>
      <point x="368.0" y="580.0" type="qcurve" smooth="yes" name="inserted"/>
      <point x="349" y="600" name="fh03"/>
      <point x="300" y="617"/>
      <point x="278" y="617" type="qcurve" name="sv01"/>
      <point x="233" y="617"/>
      <point x="171" y="585"/>
      <point x="151.0" y="562.0" type="qcurve" smooth="yes" name="inserted"/>
      <point x="131" y="539"/>
      <point x="111" y="485"/>
      <point x="108" y="463" type="qcurve" name="sh08"/>
      <point x="103.0" y="429.5" name="inserted"/>
      <point x="115.0" y="374.5"/>
      <point x="132" y="353" type="qcurve" name="sh09"/>
      <point x="103" y="328" type="line" name="sh10"/>
      <point x="80" y="351"/>
      <point x="61" y="424"/>
      <point x="66" y="463" type="qcurve" name="dh01"/>
      <point x="72" y="503"/>
      <point x="107" y="574" name="fh04"/>
      <point x="134.5" y="600.5" type="qcurve" smooth="yes" name="inserted"/>
      <point x="162" y="627" name="fh05"/>
      <point x="238" y="658"/>
      <point x="284" y="658" type="qcurve" name="at01"/>
      <point x="326" y="658"/>
      <point x="391" y="627" name="fh06"/>
      <point x="411.5" y="600.0" type="qcurve" smooth="yes" name="inserted"/>
      <point x="432" y="573" name="fh07"/>
      <point x="449" y="500"/>
      <point x="443" y="458" type="qcurve" name="dh02"/>
      <point x="435" y="404"/>
      <point x="371" y="297"/>
      <point x="325.0" y="245.0" type="qcurve" smooth="yes" name="inserted"/>
      <point x="279" y="193" name="iv02"/>
      <point x="168" y="91"/>
    </contour>
  </outline>
</glyph>
<glyph name="four" format="1">
  <advance width="515"/>
  <unicode hex="0034"/>
  <outline>
    <contour>
      <point x="243" y="40" type="line" name="sh02"/>
      <point x="320" y="40" type="line" name="sh01"/>
      <point x="340" y="183" type="line" name="ih01"/>
      <point x="16" y="183" type="line" name="dh01"/>
      <point x="449" y="658" type="line" name="sh04"/>
      <point x="388" y="224" type="line" name="ih02"/>
      <point x="485" y="224" type="line"/>
      <point x="479" y="183" type="line" name="sh05"/>
      <point x="382" y="183" type="line" name="ih03"/>
      <point x="362" y="40" type="line" name="dh02"/>
      <point x="445" y="40" type="line" name="sh06"/>
      <point x="439" y="0" type="line"/>
      <point x="238" y="0" type="line" name="ab01"/>
    </contour>
    <contour>
      <point x="389" y="535" type="line" name="sh03"/>
      <point x="107" y="224" type="line" name="sh07"/>
      <point x="346" y="224" type="line" name="ih04"/>
    </contour>
  </outline>
</glyph>
<glyph name="eight" format="1">
  <advance width="510"/>
  <unicode hex="0038"/>
  <outline>
    <contour>
      <point x="170" y="506" type="qcurve" name="sh01"/>
      <point x="164" y="463" name="fh01"/>
      <point x="219" y="407" name="fh02"/>
      <point x="265" y="407" type="qcurve" name="iv01"/>
      <point x="311" y="407" name="fh03"/>
      <point x="380" y="463"/>
      <point x="386" y="506" type="qcurve" name="sh02"/>
      <point x="389" y="528"/>
      <point x="379" y="568" name="fh04"/>
      <point x="367.0" y="583.5" type="qcurve" smooth="yes" name="inserted"/>
      <point x="355" y="599" name="fh05"/>
      <point x="318" y="617"/>
      <point x="295" y="617" type="qcurve" name="sv01"/>
      <point x="272" y="617"/>
      <point x="230" y="599" name="fh06"/>
      <point x="213.0" y="583.5" type="qcurve" smooth="yes" name="inserted"/>
      <point x="196" y="568" name="fh07"/>
      <point x="173" y="528"/>
    </contour>
    <contour>
      <point x="71" y="201" type="qcurve" name="sh03"/>
      <point x="66" y="167"/>
      <point x="83" y="106" name="fh08"/>
      <point x="102.0" y="82.5" type="qcurve" smooth="yes" name="inserted"/>
      <point x="121" y="59" name="fh09"/>
      <point x="177" y="32"/>
      <point x="212" y="32" type="qcurve" name="sv02"/>
      <point x="247" y="32"/>
      <point x="313" y="59" name="fh10"/>
      <point x="339.0" y="82.5" type="qcurve" smooth="yes" name="inserted"/>
      <point x="365" y="106"/>
      <point x="400" y="167" name="fh11"/>
      <point x="405" y="201" type="qcurve" name="sh04"/>
      <point x="410" y="235"/>
      <point x="392" y="294" name="fh12"/>
      <point x="372.0" y="316.5" type="qcurve" smooth="yes" name="inserted"/>
      <point x="352" y="339" name="fh13"/>
      <point x="294" y="366"/>
      <point x="260" y="366" type="qcurve" name="sv03"/>
      <point x="225" y="366" name="fh14"/>
      <point x="161" y="340" name="fh15"/>
      <point x="135.5" y="317.5" type="qcurve" smooth="yes" name="inserted"/>
      <point x="110" y="295"/>
      <point x="76" y="235"/>
    </contour>
    <contour>
      <point x="28" y="201" type="qcurve" name="dh01"/>
      <point x="37" y="267" name="fh16"/>
      <point x="125" y="368" name="fh17"/>
      <point x="186" y="390" type="qcurve" name="ih03"/>
      <point x="155" y="406" name="fh18"/>
      <point x="123" y="470"/>
      <point x="129" y="510" type="qcurve" name="ih01"/>
      <point x="133" y="540"/>
      <point x="163" y="594" name="fh19"/>
      <point x="186.5" y="614.5" type="qcurve" smooth="yes" name="inserted"/>
      <point x="210" y="635" name="fh20"/>
      <point x="267" y="658"/>
      <point x="298" y="658" type="qcurve" name="at01"/>
      <point x="329" y="658"/>
      <point x="381" y="634" name="fh21"/>
      <point x="398.5" y="613.5" type="qcurve" smooth="yes" name="inserted"/>
      <point x="416" y="593" name="fh22"/>
      <point x="432" y="539"/>
      <point x="428" y="508" type="qcurve" name="ih02"/>
      <point x="423" y="469"/>
      <point x="373" y="407" name="fh23"/>
      <point x="338" y="390" type="qcurve" name="ih04"/>
      <point x="395" y="369" name="fv01"/>
      <point x="456" y="267" name="fh24"/>
      <point x="447" y="201" type="qcurve" name="dh02"/>
      <point x="441" y="158"/>
      <point x="396" y="82" name="fh25"/>
      <point x="363.5" y="53.5" type="qcurve" smooth="yes" name="inserted"/>
      <point x="331" y="25" name="fh26"/>
      <point x="250" y="-8"/>
      <point x="207" y="-8" type="qcurve" name="ab01"/>
      <point x="164" y="-8"/>
      <point x="93" y="25" name="fh27"/>
      <point x="68.5" y="53.5" type="qcurve" smooth="yes" name="inserted"/>
      <point x="44" y="82" name="fh28"/>
      <point x="22" y="158"/>
    </contour>
  </outline>
</glyph>
<glyph name="nine" format="1">
  <advance width="525"/>
  <unicode hex="0039"/>
  <outline>
    <contour>
      <point x="436" y="427" type="qcurve" name="sh01"/>
      <point x="441" y="461"/>
      <point x="423" y="522"/>
      <point x="403.5" y="544.5" type="qcurve" smooth="yes" name="inserted"/>
      <point x="384" y="567" name="fh01"/>
      <point x="327" y="593"/>
      <point x="293" y="593" type="qcurve" name="sv01"/>
      <point x="258" y="593"/>
      <point x="193" y="567" name="fv01"/>
      <point x="167.0" y="544.5" type="qcurve" smooth="yes" name="inserted"/>
      <point x="141" y="522" name="fh02"/>
      <point x="105" y="461"/>
      <point x="100" y="427" type="qcurve" name="sh02"/>
      <point x="95" y="392"/>
      <point x="114" y="332" name="fh03"/>
      <point x="133.5" y="309.0" type="qcurve" smooth="yes" name="inserted"/>
      <point x="153" y="286" name="fh04"/>
      <point x="211" y="260"/>
      <point x="246" y="260" type="qcurve" name="sv03"/>
      <point x="280" y="260"/>
      <point x="345" y="286"/>
      <point x="370.5" y="309.0" type="qcurve" smooth="yes" name="inserted"/>
      <point x="396" y="332" name="fh05"/>
      <point x="431" y="392"/>
    </contour>
    <contour>
      <point x="478" y="427" type="qcurve" name="dh02"/>
      <point x="468" y="356" name="fh06"/>
      <point x="389" y="232"/>
      <point x="332.5" y="178.0" type="qcurve" smooth="yes" name="inserted"/>
      <point x="276" y="124" name="fh07"/>
      <point x="146" y="32"/>
      <point x="85" y="-8" type="qcurve" name="sh03"/>
      <point x="79.5" y="0.0" name="inserted"/>
      <point x="68.5" y="16.5"/>
      <point x="63" y="25" type="qcurve" name="ih01"/>
      <point x="180" y="96" name="fh08"/>
      <point x="320" y="222" name="fh09"/>
      <point x="353" y="269" type="qcurve" name="ih02"/>
      <point x="330" y="246"/>
      <point x="272" y="220"/>
      <point x="240" y="220" type="qcurve" name="sv02"/>
      <point x="196" y="220"/>
      <point x="125" y="252" name="fh10"/>
      <point x="100.0" y="280.0" type="qcurve" smooth="yes" name="inserted"/>
      <point x="75" y="308" name="fh11"/>
      <point x="53" y="384"/>
      <point x="59" y="427" type="qcurve" name="dh01"/>
      <point x="65" y="470"/>
      <point x="109" y="545" name="fh12"/>
      <point x="141.5" y="573.0" type="qcurve" smooth="yes" name="inserted"/>
      <point x="174" y="601" name="fh13"/>
      <point x="255" y="634"/>
      <point x="298" y="634" type="qcurve" name="av01"/>
      <point x="341" y="634"/>
      <point x="413" y="601" name="fh14"/>
      <point x="437.5" y="573.0" type="qcurve" smooth="yes" name="inserted"/>
      <point x="462" y="545" name="fh15"/>
      <point x="484" y="470"/>
    </contour>
  </outline>
</glyph>
<glyph name="less" format="1">
  <advance width="680"/>
  <unicode hex="003C"/>
  <outline>
    <contour>
      <point x="525" y="40" type="qcurve" name="sv01"/>
      <point x="517" y="-15" type="line" name="sh01"/>
      <point x="416" y="48"/>
      <point x="216" y="175"/>
      <point x="115" y="238" type="qcurve" name="ah01"/>
      <point x="233" y="301"/>
      <point x="469" y="428"/>
      <point x="588" y="491" type="qcurve" name="sh02"/>
      <point x="580" y="436" type="line" name="sv02"/>
      <point x="487" y="386"/>
      <point x="303" y="288"/>
      <point x="209" y="238" type="qcurve" name="sh03"/>
      <point x="288" y="188"/>
      <point x="445" y="90"/>
    </contour>
  </outline>
</glyph>
<glyph name="equal" format="1">
  <advance width="708"/>
  <unicode hex="003D"/>
  <outline>
    <contour>
      <point x="595" y="176" type="line"/>
      <point x="589" y="135" type="line" name="sh01"/>
      <point x="83" y="135" type="line" name="ah01"/>
      <point x="89" y="176" type="line" name="sv01"/>
    </contour>
    <contour>
      <point x="622" y="370" type="line"/>
      <point x="616" y="329" type="line" name="sh03"/>
      <point x="110" y="329" type="line" name="sh02"/>
      <point x="116" y="370" type="line" name="sv02"/>
    </contour>
  </outline>
</glyph>
<glyph name="greater" format="1">
  <advance width="650"/>
  <unicode hex="003E"/>
  <outline>
    <contour>
      <point x="79" y="-15" type="qcurve" name="sh01"/>
      <point x="87" y="40" type="line" name="sv01"/>
      <point x="180" y="90"/>
      <point x="365" y="188"/>
      <point x="459" y="238" type="qcurve" name="sh02"/>
      <point x="380" y="288"/>
      <point x="222" y="386"/>
      <point x="143" y="436" type="qcurve" name="sv02"/>
      <point x="150" y="491" type="line" name="sh03"/>
      <point x="251" y="428"/>
      <point x="451" y="301"/>
      <point x="553" y="238" type="qcurve" name="ah01"/>
      <point x="434" y="175"/>
      <point x="198" y="48"/>
    </contour>
  </outline>
</glyph>
<glyph name="question" format="1">
  <advance width="452"/>
  <unicode hex="003F"/>
  <outline>
    <contour>
      <point x="100" y="578" type="qcurve" name="sv01"/>
      <point x="92" y="582"/>
      <point x="73" y="588"/>
      <point x="65" y="591" type="qcurve" name="dh01"/>
      <point x="77" y="617" name="fh01"/>
      <point x="117" y="667" name="fh02"/>
      <point x="143.5" y="687.0" type="qcurve" smooth="yes" name="inserted"/>
      <point x="170" y="707"/>
      <point x="236" y="732"/>
      <point x="276" y="732" type="qcurve" name="av01"/>
      <point x="317" y="732"/>
      <point x="385" y="701" name="fh03"/>
      <point x="407.5" y="674.5" type="qcurve" smooth="yes" name="inserted"/>
      <point x="430" y="648" name="fh04"/>
      <point x="451" y="577"/>
      <point x="445" y="537" type="qcurve" name="dh02"/>
      <point x="437" y="483"/>
      <point x="373" y="400"/>
      <point x="322" y="368" type="qcurve" name="iv01"/>
      <point x="303" y="355"/>
      <point x="268" y="335" name="fv01"/>
      <point x="253.5" y="322.5" type="qcurve" smooth="yes" name="inserted"/>
      <point x="239" y="310" name="fh05"/>
      <point x="217" y="272"/>
      <point x="213" y="242" type="qcurve" name="fh06"/>
      <point x="202" y="164" type="line" name="sh01"/>
      <point x="160" y="164" type="line" name="ih01"/>
      <point x="174" y="261" type="line"/>
      <point x="178" y="292"/>
      <point x="206" y="331" name="fh07"/>
      <point x="225.5" y="346.0" type="qcurve" smooth="yes" name="inserted"/>
      <point x="245" y="361"/>
      <point x="294" y="388" name="fv02"/>
      <point x="321" y="408" type="qcurve" name="iv02"/>
      <point x="358" y="435"/>
      <point x="397" y="500" name="fh08"/>
      <point x="402" y="537" type="qcurve" name="sh02"/>
      <point x="406" y="570"/>
      <point x="391" y="626"/>
      <point x="373.5" y="647.0" type="qcurve" smooth="yes" name="inserted"/>
      <point x="356" y="668" name="fh09"/>
      <point x="303" y="691"/>
      <point x="270" y="691" type="qcurve" name="sv03"/>
      <point x="212" y="691"/>
      <point x="124" y="631" name="fh10"/>
    </contour>
    <contour>
      <point x="160" y="15" type="qcurve" name="av02"/>
      <point x="148" y="15"/>
      <point x="130" y="34"/>
      <point x="132" y="48" type="qcurve" name="ih02"/>
      <point x="134" y="62"/>
      <point x="157" y="81"/>
      <point x="169" y="81" type="qcurve" name="sv02"/>
      <point x="181" y="81"/>
      <point x="199" y="62"/>
      <point x="197" y="48" type="qcurve" name="sh03"/>
      <point x="195" y="34"/>
      <point x="172" y="15"/>
    </contour>
  </outline>
</glyph>
<glyph name="B" format="1">
  <advance width="526"/>
  <unicode hex="0042"/>
  <outline>
    <contour>
      <point x="40" y="40" type="line" name="sh01"/>
      <point x="101" y="40" type="line" name="dh01"/>
      <point x="188" y="660" type="line" name="sh02"/>
      <point x="127" y="660" type="line" name="sh03"/>
      <point x="133" y="700" type="line" name="at01"/>
      <point x="354" y="700" type="line"/>
      <point x="401" y="700"/>
      <point x="475" y="680" name="fh01"/>
      <point x="499.5" y="659.0" type="qcurve" smooth="yes" name="inserted"/>
      <point x="524" y="638" name="fh02"/>
      <point x="545" y="571"/>
      <point x="538" y="525" type="qcurve" name="dh02"/>
      <point x="530" y="463" name="fh03"/>
      <point x="456" y="369" name="fh04"/>
      <point x="390" y="352" type="qcurve" name="ih02"/>
      <point x="419" y="346"/>
      <point x="469" y="318" name="fh05"/>
      <point x="486.5" y="296.0" type="qcurve" smooth="yes" name="inserted"/>
      <point x="504" y="274" name="fh06"/>
      <point x="521" y="216"/>
      <point x="516" y="180" type="qcurve" name="ih03"/>
      <point x="510" y="135" name="fh07"/>
      <point x="464" y="68" name="fh08"/>
      <point x="430.5" y="45.5" type="qcurve" smooth="yes" name="inserted"/>
      <point x="397" y="23"/>
      <point x="316" y="0"/>
      <point x="274" y="0" type="qcurve"/>
      <point x="35" y="0" type="line" name="ab01"/>
    </contour>
    <contour>
      <point x="183" y="332" type="line" name="ih01"/>
      <point x="142" y="40" type="line" name="sh04"/>
      <point x="275" y="40" type="line"/>
      <point x="312" y="40"/>
      <point x="380" y="58"/>
      <point x="407.0" y="76.0" type="qcurve" smooth="yes" name="inserted"/>
      <point x="434" y="94" name="fh09"/>
      <point x="470" y="147"/>
      <point x="475" y="183" type="qcurve" name="sh06"/>
      <point x="481" y="222"/>
      <point x="455" y="278" name="fh10"/>
      <point x="430.5" y="296.5" type="qcurve" smooth="yes" name="inserted"/>
      <point x="406" y="315" name="fv01"/>
      <point x="337" y="332"/>
      <point x="299" y="332" type="qcurve"/>
    </contour>
    <contour>
      <point x="230" y="660" type="line" name="sh05"/>
      <point x="189" y="372" type="line" name="ih04"/>
      <point x="321" y="372" type="line"/>
      <point x="392" y="372" name="fh11"/>
      <point x="487" y="455" name="fh12"/>
      <point x="496" y="522" type="qcurve" name="sh07"/>
      <point x="506" y="596" name="fh13"/>
      <point x="428" y="660" name="fh14"/>
      <point x="358" y="660" type="qcurve"/>
    </contour>
  </outline>
</glyph>
<glyph name="C" format="1">
  <advance width="610"/>
  <unicode hex="0043"/>
  <outline>
    <contour>
      <point x="612" y="546" type="line" name="sh01"/>
      <point x="625" y="632" type="line" name="sh02"/>
      <point x="595" y="649" name="fh01"/>
      <point x="524" y="668"/>
      <point x="486" y="668" type="qcurve" name="sv01"/>
      <point x="421" y="668"/>
      <point x="299" y="617" name="fh02"/>
      <point x="250.5" y="573.5" type="qcurve" smooth="yes" name="inserted"/>
      <point x="202" y="530" name="fh03"/>
      <point x="136" y="414" name="fh04"/>
      <point x="127" y="348" type="qcurve" name="sh03"/>
      <point x="118" y="283"/>
      <point x="151" y="168" name="fh05"/>
      <point x="187.5" y="125.0" type="qcurve" smooth="yes" name="inserted"/>
      <point x="224" y="82" name="fh06"/>
      <point x="330" y="32"/>
      <point x="395" y="32" type="qcurve" name="sv02"/>
      <point x="440" y="32"/>
      <point x="523" y="55"/>
      <point x="562" y="76" type="qcurve" name="sv03"/>
      <point x="581" y="42" type="line" name="ih01"/>
      <point x="537" y="19"/>
      <point x="443" y="-8"/>
      <point x="392" y="-8" type="qcurve" name="ab01"/>
      <point x="318" y="-8"/>
      <point x="196" y="48" name="fh07"/>
      <point x="154.0" y="96.5" type="qcurve" smooth="yes" name="inserted"/>
      <point x="112" y="145" name="fh08"/>
      <point x="74" y="275"/>
      <point x="85" y="349" type="qcurve" name="dh01"/>
      <point x="95" y="423" name="fh09"/>
      <point x="170" y="554" name="fh10"/>
      <point x="225.0" y="602.5" type="qcurve" smooth="yes" name="inserted"/>
      <point x="280" y="651" name="fh11"/>
      <point x="418" y="708"/>
      <point x="492" y="708" type="qcurve" name="at01"/>
      <point x="543" y="708"/>
      <point x="631" y="682"/>
      <point x="668" y="658" type="qcurve" name="sh04"/>
      <point x="652" y="546" type="line" name="dh02"/>
    </contour>
  </outline>
</glyph>
<glyph name="E" format="1">
  <advance width="571"/>
  <unicode hex="0045"/>
  <outline>
    <contour>
      <point x="40" y="40" type="line" name="sh01"/>
      <point x="112" y="40" type="line" name="dh01"/>
      <point x="199" y="660" type="line" name="sh02"/>
      <point x="127" y="660" type="line" name="sh03"/>
      <point x="133" y="700" type="line" name="at01"/>
      <point x="620" y="700" type="line"/>
      <point x="598" y="546" type="line" name="dh02"/>
      <point x="558" y="546" type="line" name="sh04"/>
      <point x="574" y="660" type="line"/>
      <point x="241" y="660" type="line" name="sh06"/>
      <point x="200" y="373" type="line" name="ih01"/>
      <point x="535" y="373" type="line"/>
      <point x="529" y="333" type="line" name="ih02"/>
      <point x="194" y="333" type="line" name="ih03"/>
      <point x="153" y="40" type="line" name="sh05"/>
      <point x="501" y="40" type="line"/>
      <point x="517" y="154" type="line" name="sh07"/>
      <point x="557" y="154" type="line" name="ih04"/>
      <point x="536" y="0" type="line"/>
      <point x="35" y="0" type="line" name="ab01"/>
    </contour>
  </outline>
</glyph>
<glyph name="F" format="1">
  <advance width="557"/>
  <unicode hex="0046"/>
  <outline>
    <contour>
      <point x="40" y="40" type="line" name="sh01"/>
      <point x="112" y="40" type="line" name="dh01"/>
      <point x="199" y="660" type="line" name="sh02"/>
      <point x="127" y="660" type="line" name="sh03"/>
      <point x="133" y="700" type="line" name="at01"/>
      <point x="620" y="700" type="line"/>
      <point x="598" y="546" type="line" name="dh02"/>
      <point x="558" y="546" type="line" name="sh04"/>
      <point x="574" y="660" type="line"/>
      <point x="241" y="660" type="line" name="sh06"/>
      <point x="200" y="373" type="line" name="ih01"/>
      <point x="535" y="373" type="line"/>
      <point x="529" y="333" type="line" name="ih02"/>
      <point x="194" y="333" type="line" name="ih03"/>
      <point x="153" y="40" type="line" name="sh05"/>
      <point x="241" y="40" type="line" name="sh07"/>
      <point x="236" y="0" type="line"/>
      <point x="35" y="0" type="line" name="ab01"/>
    </contour>
  </outline>
</glyph>
<glyph name="G" format="1">
  <advance width="609"/>
  <unicode hex="0047"/>
  <outline>
    <contour>
      <point x="565" y="298" type="line"/>
      <point x="560" y="258" type="line" name="dh02"/>
      <point x="529" y="40" type="line"/>
      <point x="486" y="17"/>
      <point x="392" y="-10"/>
      <point x="341" y="-10" type="qcurve" name="ab01"/>
      <point x="267" y="-10"/>
      <point x="145" y="46" name="fh01"/>
      <point x="103.0" y="94.5" type="qcurve" smooth="yes" name="inserted"/>
      <point x="61" y="143" name="fh02"/>
      <point x="23" y="273"/>
      <point x="33" y="347" type="qcurve" name="dh01"/>
      <point x="43" y="421"/>
      <point x="118" y="552" name="fh03"/>
      <point x="173.5" y="600.5" type="qcurve" smooth="yes" name="inserted"/>
      <point x="229" y="649" name="fh04"/>
      <point x="367" y="706"/>
      <point x="441" y="706" type="qcurve" name="at01"/>
      <point x="492" y="706"/>
      <point x="579" y="680" name="fh05"/>
      <point x="617" y="656" type="qcurve" name="sh01"/>
      <point x="589" y="622" type="line" name="sv01"/>
      <point x="557" y="643" name="fh06"/>
      <point x="479" y="666"/>
      <point x="435" y="666" type="qcurve" name="sv02"/>
      <point x="370" y="666"/>
      <point x="248" y="615" name="fh07"/>
      <point x="199.5" y="571.5" type="qcurve" smooth="yes" name="inserted"/>
      <point x="151" y="528" name="fh08"/>
      <point x="84" y="412"/>
      <point x="75" y="346" type="qcurve" name="sh02"/>
      <point x="66" y="281"/>
      <point x="99" y="166" name="fh09"/>
      <point x="135.5" y="123.0" type="qcurve" smooth="yes" name="inserted"/>
      <point x="172" y="80" name="fh10"/>
      <point x="279" y="30"/>
      <point x="344" y="30" type="qcurve" name="sv03"/>
      <point x="382.0" y="30.0" name="inserted"/>
      <point x="455.5" y="47.0"/>
      <point x="491" y="64" type="qcurve" name="fh11"/>
      <point x="518" y="258" type="line" name="sh03"/>
      <point x="374" y="258" type="line" name="sh04"/>
      <point x="379" y="298" type="line" name="iv01"/>
    </contour>
  </outline>
</glyph>
<glyph name="H" format="1">
  <advance width="738"/>
  <unicode hex="0048"/>
  <outline>
    <contour>
      <point x="600" y="700" type="line" name="sv01"/>
      <point x="801" y="700" type="line"/>
      <point x="796" y="660" type="line" name="sh02"/>
      <point x="718" y="660" type="line" name="sh01"/>
      <point x="631" y="40" type="line" name="dh02"/>
      <point x="708" y="40" type="line" name="sh03"/>
      <point x="703" y="0" type="line"/>
      <point x="502" y="0" type="line" name="sv02"/>
      <point x="507" y="40" type="line" name="sh05"/>
      <point x="589" y="40" type="line" name="sh04"/>
      <point x="630" y="333" type="line" name="ih01"/>
      <point x="200" y="333" type="line" name="ih02"/>
      <point x="159" y="40" type="line" name="sh07"/>
      <point x="241" y="40" type="line" name="sh09"/>
      <point x="236" y="0" type="line"/>
      <point x="35" y="0" type="line" name="ab01"/>
      <point x="40" y="40" type="line" name="sh10"/>
      <point x="118" y="40" type="line" name="dh01"/>
      <point x="205" y="660" type="line" name="sh11"/>
      <point x="127" y="660" type="line" name="sh12"/>
      <point x="133" y="700" type="line" name="at01"/>
      <point x="334" y="700" type="line"/>
      <point x="329" y="660" type="line" name="sh13"/>
      <point x="247" y="660" type="line" name="sh08"/>
      <point x="206" y="373" type="line" name="ih03"/>
      <point x="636" y="373" type="line" name="ih04"/>
      <point x="676" y="660" type="line" name="sh06"/>
      <point x="595" y="660" type="line" name="sh14"/>
    </contour>
  </outline>
</glyph>
<glyph name="I" format="1">
  <advance width="271"/>
  <unicode hex="0049"/>
  <outline>
    <contour>
      <point x="40" y="40" type="line" name="sh01"/>
      <point x="118" y="40" type="line" name="dh01"/>
      <point x="205" y="660" type="line" name="sh02"/>
      <point x="127" y="660" type="line" name="sh03"/>
      <point x="133" y="700" type="line" name="at01"/>
      <point x="334" y="700" type="line"/>
      <point x="329" y="660" type="line" name="sh05"/>
      <point x="247" y="660" type="line" name="sh04"/>
      <point x="159" y="40" type="line" name="dh02"/>
      <point x="241" y="40" type="line" name="sh06"/>
      <point x="236" y="0" type="line"/>
      <point x="35" y="0" type="line" name="ab01"/>
    </contour>
  </outline>
</glyph>
<glyph name="L" format="1">
  <advance width="568"/>
  <unicode hex="004C"/>
  <outline>
    <contour>
      <point x="40" y="40" type="line" name="sh01"/>
      <point x="109" y="40" type="line" name="dh01"/>
      <point x="196" y="660" type="line" name="sh02"/>
      <point x="127" y="660" type="line" name="sh03"/>
      <point x="133" y="700" type="line" name="at01"/>
      <point x="326" y="700" type="line"/>
      <point x="321" y="660" type="line" name="sh06"/>
      <point x="238" y="660" type="line" name="sh05"/>
      <point x="150" y="40" type="line" name="sh04"/>
      <point x="498" y="40" type="line" name="sh08"/>
      <point x="514" y="154" type="line" name="sh07"/>
      <point x="554" y="154" type="line" name="dh02"/>
      <point x="533" y="0" type="line" name="sh09"/>
      <point x="35" y="0" type="line" name="ab01"/>
    </contour>
  </outline>
</glyph>
<glyph name="N" format="1">
  <advance width="846"/>
  <unicode hex="004E"/>
  <outline>
    <contour>
      <point x="45" y="40" type="line" name="sh01"/>
      <point x="126" y="40" type="line" name="dh01"/>
      <point x="212" y="660" type="line" name="sh02"/>
      <point x="131" y="660" type="line" name="sh03"/>
      <point x="137" y="700" type="line" name="at01"/>
      <point x="245" y="700" type="line" name="ih01"/>
      <point x="686" y="88" type="line"/>
      <point x="701" y="62" type="line" name="ih02"/>
      <point x="703" y="94" type="line" name="sh07"/>
      <point x="782" y="660" type="line" name="sh06"/>
      <point x="706" y="660" type="line" name="sh09"/>
      <point x="712" y="700" type="line" name="sv01"/>
      <point x="913" y="700" type="line"/>
      <point x="907" y="660" type="line" name="sh10"/>
      <point x="823" y="660" type="line" name="dh02"/>
      <point x="727" y="-32" type="line" name="sh08"/>
      <point x="263" y="607" type="line"/>
      <point x="248" y="629" type="line"/>
      <point x="246" y="601" type="line" name="sh05"/>
      <point x="167" y="40" type="line" name="sh04"/>
      <point x="246" y="40" type="line" name="sh11"/>
      <point x="240" y="0" type="line"/>
      <point x="39" y="0" type="line" name="ab01"/>
    </contour>
  </outline>
</glyph>
<glyph name="Q" format="1">
  <advance width="808"/>
  <unicode hex="0051"/>
  <outline>
    <contour>
      <point x="127" y="348" type="qcurve" name="sh01"/>
      <point x="118" y="283"/>
      <point x="151" y="168" name="fh01"/>
      <point x="187.5" y="125.0" type="qcurve" smooth="yes" name="inserted"/>
      <point x="224" y="82" name="fh02"/>
      <point x="330" y="32"/>
      <point x="395" y="32" type="qcurve" name="sv01"/>
      <point x="461" y="32" name="fv01"/>
      <point x="584" y="82" name="fh03"/>
      <point x="633.5" y="125.0" type="qcurve" smooth="yes" name="inserted"/>
      <point x="683" y="168" name="fh04"/>
      <point x="750" y="283" name="fh05"/>
      <point x="759" y="349" type="qcurve" name="sh02"/>
      <point x="768" y="415"/>
      <point x="734" y="531" name="fh06"/>
      <point x="697.0" y="574.5" type="qcurve" smooth="yes" name="inserted"/>
      <point x="660" y="618" name="fh07"/>
      <point x="551" y="668"/>
      <point x="486" y="668" type="qcurve" name="sv02"/>
      <point x="421" y="668"/>
      <point x="299" y="617" name="fh08"/>
      <point x="250.5" y="573.5" type="qcurve" smooth="yes" name="inserted"/>
      <point x="202" y="530" name="fh09"/>
      <point x="136" y="414"/>
    </contour>
    <contour>
      <point x="85" y="349" type="qcurve" name="dh01"/>
      <point x="95" y="423"/>
      <point x="170" y="554" name="fh10"/>
      <point x="225.0" y="602.5" type="qcurve" smooth="yes" name="inserted"/>
      <point x="280" y="651" name="fh11"/>
      <point x="418" y="708"/>
      <point x="492" y="708" type="qcurve" name="at01"/>
      <point x="566" y="708"/>
      <point x="689" y="651" name="fh12"/>
      <point x="731.0" y="602.5" type="qcurve" smooth="yes" name="inserted"/>
      <point x="773" y="554" name="fh13"/>
      <point x="811" y="423"/>
      <point x="801" y="349" type="qcurve" name="dh02"/>
      <point x="793" y="298"/>
      <point x="752" y="204"/>
      <point x="721.5" y="164.5" type="qcurve" smooth="yes" name="inserted"/>
      <point x="691" y="125" name="fh14"/>
      <point x="612" y="61" name="fh15"/>
      <point x="567" y="40" type="qcurve" name="ih01"/>
      <point x="780" y="40" type="line" name="sh03"/>
      <point x="774" y="0" type="line" name="ab02"/>
      <point x="467" y="0" type="line" name="ih02"/>
      <point x="447.0" y="-4.0" name="inserted"/>
      <point x="409.5" y="-8.0"/>
      <point x="392" y="-8" type="qcurve" name="ab01"/>
      <point x="318" y="-8" name="fv02"/>
      <point x="196" y="48" name="fh16"/>
      <point x="154.0" y="96.5" type="qcurve" smooth="yes" name="inserted"/>
      <point x="112" y="145" name="fh17"/>
      <point x="74" y="275"/>
    </contour>
  </outline>
</glyph>
<glyph name="R" format="1">
  <advance width="572"/>
  <unicode hex="0052"/>
  <outline>
    <contour>
      <point x="40" y="40" type="line" name="sh01"/>
      <point x="101" y="40" type="line" name="dh01"/>
      <point x="188" y="660" type="line" name="sh02"/>
      <point x="127" y="660" type="line" name="sh03"/>
      <point x="133" y="700" type="line" name="at01"/>
      <point x="344" y="700" type="line"/>
      <point x="375" y="700"/>
      <point x="447" y="680" name="fh01"/>
      <point x="476.0" y="658.0" type="qcurve" smooth="yes" name="inserted"/>
      <point x="505" y="636" name="fh02"/>
      <point x="540" y="566"/>
      <point x="533" y="517" type="qcurve" name="dh02"/>
      <point x="522" y="445" name="fh03"/>
      <point x="432" y="350" name="fh04"/>
      <point x="357" y="335" type="qcurve" name="ih02"/>
      <point x="454" y="40" type="line" name="sh06"/>
      <point x="542" y="40" type="line" name="sh07"/>
      <point x="537" y="0" type="line"/>
      <point x="423" y="0" type="line" name="sh09"/>
      <point x="313" y="331" type="line" name="sh08"/>
      <point x="302" y="330"/>
      <point x="278" y="329"/>
      <point x="267" y="329" type="qcurve"/>
      <point x="183" y="329" type="line" name="ih01"/>
      <point x="142" y="40" type="line" name="sh04"/>
      <point x="241" y="40" type="line" name="sh10"/>
      <point x="236" y="0" type="line"/>
      <point x="35" y="0" type="line" name="ab01"/>
    </contour>
    <contour>
      <point x="189" y="370" type="line" name="ih03"/>
      <point x="292" y="370" type="line"/>
      <point x="344" y="370"/>
      <point x="417" y="398" name="fh05"/>
      <point x="440.5" y="420.0" type="qcurve" smooth="yes" name="inserted"/>
      <point x="464" y="442"/>
      <point x="488" y="493"/>
      <point x="491" y="517" type="qcurve" name="sh11"/>
      <point x="495" y="545"/>
      <point x="475" y="597" name="fh06"/>
      <point x="454.0" y="617.0" type="qcurve" smooth="yes" name="inserted"/>
      <point x="433" y="637" name="fh07"/>
      <point x="372" y="660"/>
      <point x="334" y="660" type="qcurve"/>
      <point x="230" y="660" type="line" name="sh05"/>
    </contour>
  </outline>
</glyph>
<glyph name="T" format="1">
  <advance width="623"/>
  <unicode hex="0054"/>
  <outline>
    <contour>
      <point x="214" y="40" type="line" name="sv01"/>
      <point x="296" y="40" type="line" name="dh01"/>
      <point x="383" y="660" type="line" name="sh01"/>
      <point x="167" y="660" type="line" name="sh02"/>
      <point x="151" y="546" type="line" name="sh03"/>
      <point x="111" y="546" type="line" name="sh04"/>
      <point x="133" y="700" type="line" name="sh05"/>
      <point x="686" y="700" type="line" name="sh10"/>
      <point x="664" y="546" type="line" name="sh09"/>
      <point x="624" y="546" type="line" name="sh08"/>
      <point x="640" y="660" type="line" name="sh07"/>
      <point x="425" y="660" type="line" name="sh06"/>
      <point x="337" y="40" type="line" name="dh02"/>
      <point x="415" y="40" type="line"/>
      <point x="410" y="0" type="line"/>
      <point x="209" y="0" type="line" name="ab01"/>
    </contour>
  </outline>
</glyph>
<glyph name="V" format="1">
  <advance width="830"/>
  <unicode hex="0056"/>
  <outline>
    <contour>
      <point x="137" y="700" type="line" name="at01"/>
      <point x="338" y="700" type="line"/>
      <point x="333" y="660" type="line" name="sh03"/>
      <point x="258" y="660" type="line" name="sh02"/>
      <point x="299" y="516"/>
      <point x="379" y="232"/>
      <point x="421" y="89" type="qcurve" name="fh01"/>
      <point x="425" y="61" type="line" name="sh04"/>
      <point x="439" y="89" type="line"/>
      <point x="519" y="232"/>
      <point x="679" y="516"/>
      <point x="760" y="660" type="qcurve" name="sh06"/>
      <point x="691" y="660" type="line" name="sh07"/>
      <point x="696" y="700" type="line" name="sv01"/>
      <point x="897" y="700" type="line"/>
      <point x="892" y="660" type="line" name="sh08"/>
      <point x="802" y="660" type="line" name="sh05"/>
      <point x="705" y="486"/>
      <point x="510" y="142"/>
      <point x="413" y="-32" type="qcurve" name="ah01"/>
      <point x="363" y="142"/>
      <point x="265" y="486"/>
      <point x="215" y="660" type="qcurve" name="sh01"/>
      <point x="131" y="660" type="line" name="sh09"/>
    </contour>
  </outline>
</glyph>
<glyph name="X" format="1">
  <advance width="704"/>
  <unicode hex="0058"/>
  <outline>
    <contour>
      <point x="133" y="700" type="line" name="at01"/>
      <point x="334" y="700" type="line"/>
      <point x="329" y="660" type="line" name="sh03"/>
      <point x="271" y="660" type="line" name="sh02"/>
      <point x="304" y="597"/>
      <point x="368" y="471"/>
      <point x="400" y="408" type="qcurve"/>
      <point x="407" y="390" type="line" name="ih05"/>
      <point x="420" y="408" type="line" name="fh01"/>
      <point x="617" y="660" type="line" name="sh05"/>
      <point x="560" y="660" type="line" name="sh06"/>
      <point x="565" y="700" type="line" name="sv01"/>
      <point x="767" y="700" type="line"/>
      <point x="761" y="660" type="line" name="sh08"/>
      <point x="667" y="660" type="line" name="sh07"/>
      <point x="607" y="582"/>
      <point x="488" y="431"/>
      <point x="428" y="354" type="qcurve" name="ih04"/>
      <point x="467" y="275"/>
      <point x="548" y="119"/>
      <point x="588" y="40" type="qcurve" name="ih02"/>
      <point x="674" y="40" type="line" name="dh02"/>
      <point x="669" y="0" type="line"/>
      <point x="467" y="0" type="line" name="sv04"/>
      <point x="472" y="40" type="line" name="sv03"/>
      <point x="536" y="40" type="line" name="sh04"/>
      <point x="418" y="271" type="line"/>
      <point x="412" y="283"/>
      <point x="400" y="311"/>
      <point x="393" y="323" type="qcurve" name="ih06"/>
      <point x="381" y="304" type="line" name="fh02"/>
      <point x="329" y="237" name="fh03"/>
      <point x="226" y="106"/>
      <point x="174" y="40" type="qcurve" name="sh01"/>
      <point x="241" y="40" type="line" name="sv02"/>
      <point x="236" y="0" type="line"/>
      <point x="35" y="0" type="line" name="ab01"/>
      <point x="40" y="40" type="line" name="dh01"/>
      <point x="123" y="40" type="line" name="ih01"/>
      <point x="374" y="359" type="line" name="ih03"/>
      <point x="221" y="660" type="line" name="sh09"/>
      <point x="127" y="660" type="line" name="sh10"/>
    </contour>
  </outline>
</glyph>
<glyph name="Z" format="1">
  <advance width="629"/>
  <unicode hex="005A"/>
  <outline>
    <contour>
      <point x="622" y="201" type="line" name="ih01"/>
      <point x="594" y="0" type="line" name="sh01"/>
      <point x="35" y="0" type="line" name="dh01"/>
      <point x="40" y="40" type="line" name="sv01"/>
      <point x="605" y="660" type="line" name="sh02"/>
      <point x="144" y="660" type="line" name="sh03"/>
      <point x="155" y="735" type="line" name="ih02"/>
      <point x="197" y="735" type="line" name="sh04"/>
      <point x="192" y="700" type="line" name="sh05"/>
      <point x="663" y="700" type="line" name="dh02"/>
      <point x="657" y="660" type="line" name="sv02"/>
      <point x="93" y="40" type="line" name="sh06"/>
      <point x="559" y="40" type="line" name="sh08"/>
      <point x="582" y="201" type="line" name="sh07"/>
    </contour>
  </outline>
</glyph>
<glyph name="underscore" format="1">
  <advance width="600"/>
  <unicode hex="005F"/>
  <outline>
    <contour>
      <point x="497" y="0" type="line" name="sh01"/>
      <point x="97" y="0" type="line" name="ah01"/>
      <point x="102" y="41" type="line" name="sv01"/>
      <point x="502" y="41" type="line"/>
    </contour>
  </outline>
</glyph>
<glyph name="grave" format="1">
  <advance width="200"/>
  <unicode hex="0060"/>
  <outline>
    <contour>
      <point x="27" y="612" type="line" name="sh01"/>
      <point x="44" y="579"/>
      <point x="74" y="512"/>
      <point x="90" y="479" type="qcurve" name="sh02"/>
      <point x="57" y="479" type="line" name="sh03"/>
      <point x="38" y="512"/>
      <point x="3" y="579"/>
      <point x="-15" y="612" type="qcurve" name="ah01"/>
    </contour>
  </outline>
</glyph>
<glyph name="e" format="1">
  <advance width="441"/>
  <unicode hex="0065"/>
  <outline>
    <contour>
      <point x="280" y="343" type="qcurve" name="sv01"/>
      <point x="243" y="343"/>
      <point x="177" y="312" name="fh01"/>
      <point x="152.5" y="286.5" type="qcurve" smooth="yes" name="inserted"/>
      <point x="128" y="261" name="fh02"/>
      <point x="101" y="194"/>
      <point x="103" y="159" type="qcurve" name="sh01"/>
      <point x="175" y="186"/>
      <point x="317" y="239"/>
      <point x="388" y="266" type="qcurve" name="sh02"/>
      <point x="375" y="300" name="fv01"/>
      <point x="318" y="343"/>
    </contour>
    <contour>
      <point x="438" y="243" type="qcurve" name="dh02"/>
      <point x="356" y="212"/>
      <point x="192" y="151"/>
      <point x="110" y="120" type="qcurve" name="sh03"/>
      <point x="122" y="82" name="fh03"/>
      <point x="189" y="34" name="fh04"/>
      <point x="236" y="34" type="qcurve" name="sv02"/>
      <point x="267" y="34"/>
      <point x="324" y="56"/>
      <point x="347" y="76" type="qcurve" name="sv03"/>
      <point x="353" y="68"/>
      <point x="364" y="53"/>
      <point x="369" y="45" type="qcurve" name="ih01"/>
      <point x="340" y="21" name="fv02"/>
      <point x="270" y="-7"/>
      <point x="231" y="-7" type="qcurve" name="ab01"/>
      <point x="190" y="-7"/>
      <point x="123" y="24" name="fh05"/>
      <point x="100.0" y="50.0" type="qcurve" smooth="yes" name="inserted"/>
      <point x="77" y="76"/>
      <point x="56" y="147"/>
      <point x="62" y="188" type="qcurve" name="dh01"/>
      <point x="68" y="228"/>
      <point x="108" y="300" name="fh06"/>
      <point x="138.5" y="326.0" type="qcurve" smooth="yes" name="inserted"/>
      <point x="169" y="352" name="fh07"/>
      <point x="245" y="383"/>
      <point x="286" y="383" type="qcurve" name="at01"/>
      <point x="316" y="383"/>
      <point x="367" y="362" name="fh08"/>
      <point x="386.5" y="343.5" type="qcurve" smooth="yes" name="inserted"/>
      <point x="406" y="325" name="fh09"/>
      <point x="433" y="274"/>
    </contour>
  </outline>
</glyph>
<glyph name="f" format="1">
  <advance width="303"/>
  <unicode hex="0066"/>
  <outline>
    <contour>
      <point x="40" y="40" type="line" name="sh01"/>
      <point x="101" y="40" type="line" name="dh01"/>
      <point x="142" y="334" type="line" name="ih01"/>
      <point x="81" y="334" type="line" name="sv01"/>
      <point x="87" y="375" type="line" name="sh03"/>
      <point x="148" y="375" type="line" name="ih02"/>
      <point x="168" y="518" type="line" name="sh02"/>
      <point x="176" y="573"/>
      <point x="220" y="659" name="fh01"/>
      <point x="252.5" y="688.0" type="qcurve" smooth="yes" name="inserted"/>
      <point x="285" y="717" name="fh02"/>
      <point x="364" y="748"/>
      <point x="408" y="750" type="qcurve" name="sh04"/>
      <point x="402" y="710" type="line" name="sv02"/>
      <point x="368" y="709"/>
      <point x="304" y="683" name="fh03"/>
      <point x="278.0" y="658.0" type="qcurve" smooth="yes" name="inserted"/>
      <point x="252" y="633" name="fh04"/>
      <point x="216" y="563" name="fh05"/>
      <point x="210" y="519" type="qcurve" name="sh05"/>
      <point x="189" y="375" type="line" name="ih03"/>
      <point x="314" y="375" type="line" name="sh06"/>
      <point x="309" y="334" type="line"/>
      <point x="184" y="334" type="line" name="ih04"/>
      <point x="142" y="40" type="line" name="dh02"/>
      <point x="233" y="40" type="line" name="sh07"/>
      <point x="228" y="0" type="line"/>
      <point x="35" y="0" type="line" name="ab01"/>
    </contour>
  </outline>
</glyph>
<glyph name="g" format="1">
  <advance width="539"/>
  <unicode hex="0067"/>
  <outline>
    <contour>
      <point x="482" y="375" type="qcurve"/>
      <point x="591" y="375" type="line" name="at01"/>
      <point x="585" y="335" type="line" name="sh02"/>
      <point x="510" y="335" type="line" name="sh01"/>
      <point x="458" y="-35" type="line" name="dh02"/>
      <point x="451" y="-84"/>
      <point x="410" y="-163" name="fh01"/>
      <point x="380.5" y="-191.0" type="qcurve" smooth="yes" name="inserted"/>
      <point x="351" y="-219" name="fh02"/>
      <point x="278" y="-249"/>
      <point x="238" y="-250" type="qcurve" name="ab02"/>
      <point x="196" y="-249"/>
      <point x="115" y="-219" name="fh03"/>
      <point x="92" y="-190" type="qcurve" name="ih01"/>
      <point x="126" y="-159" type="line" name="sv01"/>
      <point x="145" y="-183" name="fh04"/>
      <point x="209" y="-207"/>
      <point x="243" y="-207" type="qcurve" name="sv02"/>
      <point x="274" y="-207"/>
      <point x="332" y="-182" name="fh05"/>
      <point x="356.0" y="-159.0" type="qcurve" smooth="yes" name="inserted"/>
      <point x="380" y="-136" name="fh06"/>
      <point x="412" y="-71"/>
      <point x="418" y="-32" type="qcurve" name="sh03"/>
      <point x="427" y="40" type="line"/>
      <point x="430" y="51"/>
      <point x="435" y="74"/>
      <point x="438" y="85" type="qcurve" name="ih02"/>
      <point x="427" y="67" name="fh07"/>
      <point x="393" y="34"/>
      <point x="370.5" y="21.5" type="qcurve" smooth="yes" name="inserted"/>
      <point x="348" y="9" name="fv01"/>
      <point x="295" y="-7"/>
      <point x="266" y="-7" type="qcurve" name="ab01"/>
      <point x="225" y="-7"/>
      <point x="157" y="24" name="fh08"/>
      <point x="134.0" y="50.0" type="qcurve" smooth="yes" name="inserted"/>
      <point x="111" y="76" name="fh09"/>
      <point x="90" y="147"/>
      <point x="96" y="188" type="qcurve" name="dh01"/>
      <point x="102" y="228"/>
      <point x="142" y="299" name="fh10"/>
      <point x="172.5" y="325.5" type="qcurve" smooth="yes" name="inserted"/>
      <point x="203" y="352" name="fh11"/>
      <point x="279" y="383"/>
      <point x="320" y="383" type="qcurve" name="at02"/>
      <point x="349" y="383"/>
      <point x="399" y="366" name="fh12"/>
      <point x="418.0" y="352.5" type="qcurve" smooth="yes" name="inserted"/>
      <point x="437" y="339" name="fh13"/>
      <point x="462" y="304"/>
      <point x="466" y="287" type="qcurve" name="sh04"/>
      <point x="470" y="309"/>
      <point x="478" y="353"/>
    </contour>
    <contour>
      <point x="138" y="188" type="qcurve" name="sh05"/>
      <point x="133" y="156"/>
      <point x="149" y="100" name="fh14"/>
      <point x="167.0" y="79.0" type="qcurve" smooth="yes" name="inserted"/>
      <point x="185" y="58" name="fh15"/>
      <point x="238" y="34"/>
      <point x="271" y="34" type="qcurve" name="sv03"/>
      <point x="304" y="34"/>
      <point x="364" y="58" name="fv02"/>
      <point x="388.0" y="79.0" type="qcurve" smooth="yes" name="inserted"/>
      <point x="412" y="100"/>
      <point x="443" y="156"/>
      <point x="448" y="188" type="qcurve" name="ih03"/>
      <point x="452" y="220"/>
      <point x="436" y="277"/>
      <point x="418.0" y="298.0" type="qcurve" smooth="yes" name="inserted"/>
      <point x="400" y="319" name="fh16"/>
      <point x="347" y="343"/>
      <point x="314" y="343" type="qcurve" name="sv04"/>
      <point x="281" y="343"/>
      <point x="222" y="319" name="fh17"/>
      <point x="198.0" y="298.0" type="qcurve" smooth="yes" name="inserted"/>
      <point x="174" y="277"/>
      <point x="142" y="220" name="fh18"/>
    </contour>
  </outline>
</glyph>
<glyph name="h" format="1">
  <advance width="545"/>
  <unicode hex="0068"/>
  <outline>
    <contour>
      <point x="322" y="40" type="line" name="sh02"/>
      <point x="400" y="40" type="line" name="sh01"/>
      <point x="431" y="260" type="line" name="sh03"/>
      <point x="434" y="292" name="fv01"/>
      <point x="398" y="340" name="fh01"/>
      <point x="356" y="342" type="qcurve" name="sv01"/>
      <point x="325" y="342"/>
      <point x="267" y="321"/>
      <point x="243.0" y="303.0" type="qcurve" smooth="yes" name="inserted"/>
      <point x="219" y="285"/>
      <point x="186" y="235"/>
      <point x="182" y="205" type="qcurve" name="ih01"/>
      <point x="159" y="40" type="line" name="sh04"/>
      <point x="233" y="40" type="line" name="sh06"/>
      <point x="228" y="0" type="line"/>
      <point x="35" y="0" type="line" name="ab01"/>
      <point x="40" y="40" type="line" name="sh07"/>
      <point x="118" y="40" type="line" name="dh01"/>
      <point x="212" y="710" type="line" name="sh08"/>
      <point x="138" y="710" type="line" name="sh09"/>
      <point x="144" y="750" type="line" name="at01"/>
      <point x="259" y="750" type="line" name="sh05"/>
      <point x="199" y="323" type="line"/>
      <point x="190" y="278" type="line" name="ih02"/>
      <point x="218" y="326"/>
      <point x="312" y="381"/>
      <point x="369" y="383" type="qcurve" name="at02"/>
      <point x="424" y="383" name="fv02"/>
      <point x="480" y="321" name="fh02"/>
      <point x="474" y="271" type="qcurve" name="sh10"/>
      <point x="442" y="40" type="line" name="dh02"/>
      <point x="515" y="40" type="line" name="sh11"/>
      <point x="510" y="0" type="line"/>
      <point x="317" y="0" type="line" name="sv02"/>
    </contour>
  </outline>
</glyph>
<glyph name="j" format="1">
  <advance width="184"/>
  <unicode hex="006A"/>
  <outline>
    <contour>
      <point x="61" y="375" type="line" name="at01"/>
      <point x="175" y="375" type="line" name="sh01"/>
      <point x="122" y="-4" type="line" name="dh02"/>
      <point x="114" y="-63"/>
      <point x="67" y="-151"/>
      <point x="32" y="-180" type="qcurve" name="av02"/>
      <point x="6" y="-150" type="line" name="sh02"/>
      <point x="34" y="-125" name="fh01"/>
      <point x="74" y="-53"/>
      <point x="80" y="-5" type="qcurve" name="dh01"/>
      <point x="128" y="335" type="line" name="sh03"/>
      <point x="55" y="335" type="line" name="sh04"/>
    </contour>
    <contour>
      <point x="142" y="508" type="qcurve" name="sh06"/>
      <point x="144" y="522"/>
      <point x="166" y="541"/>
      <point x="179" y="541" type="qcurve" name="sv01"/>
      <point x="192" y="541"/>
      <point x="209" y="522"/>
      <point x="207" y="508" type="qcurve" name="sh05"/>
      <point x="205" y="494"/>
      <point x="183" y="475"/>
      <point x="170" y="475" type="qcurve" name="av01"/>
      <point x="157" y="475"/>
      <point x="140" y="494"/>
    </contour>
  </outline>
</glyph>
<glyph name="l" format="1">
  <advance width="263"/>
  <unicode hex="006C"/>
  <outline>
    <contour>
      <point x="40" y="40" type="line" name="sh01"/>
      <point x="114" y="40" type="line" name="dh01"/>
      <point x="208" y="710" type="line" name="sh02"/>
      <point x="138" y="710" type="line" name="sh03"/>
      <point x="143" y="750" type="line" name="at01"/>
      <point x="255" y="750" type="line" name="sh04"/>
      <point x="155" y="40" type="line" name="dh02"/>
      <point x="233" y="40" type="line" name="sh05"/>
      <point x="228" y="0" type="line"/>
      <point x="35" y="0" type="line" name="ab01"/>
    </contour>
  </outline>
</glyph>
<glyph name="n" format="1">
  <advance width="545"/>
  <unicode hex="006E"/>
  <outline>
    <contour>
      <point x="322" y="40" type="line" name="sh02"/>
      <point x="400" y="40" type="line" name="sh01"/>
      <point x="431" y="260" type="line" name="sh03"/>
      <point x="434" y="292" name="fh01"/>
      <point x="398" y="340"/>
      <point x="356" y="342" type="qcurve" name="sv01"/>
      <point x="325" y="342"/>
      <point x="267" y="321"/>
      <point x="243.0" y="303.0" type="qcurve" smooth="yes" name="inserted"/>
      <point x="219" y="285"/>
      <point x="186" y="235"/>
      <point x="182" y="205" type="qcurve" name="ih01"/>
      <point x="159" y="40" type="line" name="sh04"/>
      <point x="233" y="40" type="line" name="sh06"/>
      <point x="228" y="0" type="line"/>
      <point x="35" y="0" type="line" name="ab01"/>
      <point x="40" y="40" type="line" name="sh07"/>
      <point x="118" y="40" type="line" name="dh01"/>
      <point x="159" y="335" type="line" name="sh08"/>
      <point x="88" y="335" type="line" name="sh09"/>
      <point x="93" y="375" type="line" name="at02"/>
      <point x="199" y="375" type="line"/>
      <point x="195" y="340" type="line"/>
      <point x="193" y="323"/>
      <point x="192" y="295" name="iv01"/>
      <point x="190" y="278" type="qcurve" name="sh05"/>
      <point x="217" y="325" name="fv01"/>
      <point x="313" y="383" name="fh02"/>
      <point x="369" y="383" type="qcurve" name="at01"/>
      <point x="424" y="383" name="fv02"/>
      <point x="480" y="321" name="fh03"/>
      <point x="474" y="271" type="qcurve" name="sh10"/>
      <point x="442" y="40" type="line" name="dh02"/>
      <point x="515" y="40" type="line" name="sh11"/>
      <point x="510" y="0" type="line"/>
      <point x="317" y="0" type="line" name="sv02"/>
    </contour>
  </outline>
</glyph>
<glyph name="o" format="1">
  <advance width="465"/>
  <unicode hex="006F"/>
  <outline>
    <contour>
      <point x="63" y="188" type="qcurve" name="dh01"/>
      <point x="69" y="228"/>
      <point x="109" y="300" name="fh01"/>
      <point x="139.0" y="326.5" type="qcurve" smooth="yes" name="inserted"/>
      <point x="169" y="353" name="fh02"/>
      <point x="245" y="384"/>
      <point x="286" y="384" type="qcurve" name="at01"/>
      <point x="327" y="384"/>
      <point x="395" y="353" name="fh03"/>
      <point x="418.5" y="326.5" type="qcurve" smooth="yes" name="inserted"/>
      <point x="442" y="300" name="fh04"/>
      <point x="463" y="228"/>
      <point x="457" y="188" type="qcurve" name="dh02"/>
      <point x="451" y="147"/>
      <point x="411" y="76" name="fh05"/>
      <point x="380.5" y="50.0" type="qcurve" smooth="yes" name="inserted"/>
      <point x="350" y="24" name="fh06"/>
      <point x="273" y="-7"/>
      <point x="232" y="-7" type="qcurve" name="ab01"/>
      <point x="191" y="-7"/>
      <point x="124" y="24" name="fh07"/>
      <point x="101.0" y="50.0" type="qcurve" smooth="yes" name="inserted"/>
      <point x="78" y="76" name="fh08"/>
      <point x="57" y="147"/>
    </contour>
    <contour>
      <point x="104" y="188" type="qcurve" name="sh01"/>
      <point x="99" y="156"/>
      <point x="116" y="100"/>
      <point x="134.0" y="79.0" type="qcurve" smooth="yes" name="inserted"/>
      <point x="152" y="58" name="fh09"/>
      <point x="204" y="34"/>
      <point x="236" y="34" type="qcurve" name="sv01"/>
      <point x="268" y="34"/>
      <point x="328" y="58" name="fv01"/>
      <point x="352.0" y="79.0" type="qcurve" smooth="yes" name="inserted"/>
      <point x="376" y="100" name="fh10"/>
      <point x="408" y="156"/>
      <point x="413" y="188" type="qcurve" name="sh02"/>
      <point x="417" y="220"/>
      <point x="401" y="276"/>
      <point x="383.0" y="297.0" type="qcurve" smooth="yes" name="inserted"/>
      <point x="365" y="318" name="fh11"/>
      <point x="312" y="343"/>
      <point x="280" y="343" type="qcurve" name="sv02"/>
      <point x="248" y="343"/>
      <point x="188" y="318" name="fh12"/>
      <point x="164.0" y="297.0" type="qcurve" smooth="yes" name="inserted"/>
      <point x="140" y="276" name="fh13"/>
      <point x="108" y="220"/>
    </contour>
  </outline>
</glyph>
<glyph name="p" format="1">
  <advance width="538"/>
  <unicode hex="0070"/>
  <outline>
    <contour>
      <point x="3" y="-210" type="line" name="sh01"/>
      <point x="68" y="-210" type="line" name="dh01"/>
      <point x="145" y="335" type="line" name="sh02"/>
      <point x="71" y="335" type="line" name="sh03"/>
      <point x="77" y="375" type="line" name="at02"/>
      <point x="184" y="375" type="line"/>
      <point x="182" y="353"/>
      <point x="177" y="307"/>
      <point x="175" y="285" type="qcurve" name="sh05"/>
      <point x="184" y="303"/>
      <point x="219" y="338"/>
      <point x="242.0" y="351.5" type="qcurve" smooth="yes" name="inserted"/>
      <point x="265" y="365"/>
      <point x="320" y="382"/>
      <point x="349" y="382" type="qcurve" name="at01"/>
      <point x="390" y="382"/>
      <point x="458" y="351" name="fh01"/>
      <point x="480.5" y="325.0" type="qcurve" smooth="yes" name="inserted"/>
      <point x="503" y="299"/>
      <point x="524" y="227"/>
      <point x="519" y="187" type="qcurve" name="dh02"/>
      <point x="513" y="147"/>
      <point x="472" y="76" name="fh02"/>
      <point x="441.5" y="49.5" type="qcurve" smooth="yes" name="inserted"/>
      <point x="411" y="23" name="fh03"/>
      <point x="335" y="-8"/>
      <point x="294" y="-8" type="qcurve" name="ab01"/>
      <point x="264" y="-8"/>
      <point x="214" y="8"/>
      <point x="195.5" y="20.5" type="qcurve" smooth="yes" name="inserted"/>
      <point x="177" y="33" name="fh04"/>
      <point x="152" y="66"/>
      <point x="147" y="84" type="qcurve" name="ih01"/>
      <point x="147" y="44" type="line"/>
      <point x="111" y="-210" type="line" name="sh04"/>
      <point x="195" y="-210" type="line" name="sh06"/>
      <point x="191" y="-250" type="line"/>
      <point x="-2" y="-250" type="line" name="ab02"/>
    </contour>
    <contour>
      <point x="477" y="187" type="qcurve" name="sh07"/>
      <point x="481" y="220"/>
      <point x="465" y="276"/>
      <point x="447.0" y="296.5" type="qcurve" smooth="yes" name="inserted"/>
      <point x="429" y="317" name="fh05"/>
      <point x="376" y="341"/>
      <point x="343" y="341" type="qcurve" name="sv01"/>
      <point x="310" y="341"/>
      <point x="250" y="317"/>
      <point x="226.0" y="296.5" type="qcurve" smooth="yes" name="inserted"/>
      <point x="202" y="276"/>
      <point x="170" y="220"/>
      <point x="166" y="187" type="qcurve" name="ih02"/>
      <point x="161" y="155"/>
      <point x="177" y="98" name="fh06"/>
      <point x="195.0" y="77.0" type="qcurve" smooth="yes" name="inserted"/>
      <point x="213" y="56" name="fh07"/>
      <point x="266" y="32"/>
      <point x="299" y="32" type="qcurve" name="sv02"/>
      <point x="332" y="32"/>
      <point x="392" y="56"/>
      <point x="416.0" y="77.0" type="qcurve" smooth="yes" name="inserted"/>
      <point x="440" y="98" name="fh08"/>
      <point x="472" y="155"/>
    </contour>
  </outline>
</glyph>
<glyph name="q" format="1">
  <advance width="540"/>
  <unicode hex="0071"/>
  <outline>
    <contour>
      <point x="308" y="-210" type="line" name="sh02"/>
      <point x="392" y="-210" type="line" name="sh01"/>
      <point x="427" y="44" type="line"/>
      <point x="429" y="54"/>
      <point x="435" y="74"/>
      <point x="437" y="84" type="qcurve" name="ih01"/>
      <point x="427" y="66" name="fv01"/>
      <point x="393" y="33" name="fv02"/>
      <point x="370.5" y="20.5" type="qcurve" smooth="yes" name="inserted"/>
      <point x="348" y="8"/>
      <point x="295" y="-8"/>
      <point x="265" y="-8" type="qcurve" name="ab01"/>
      <point x="224" y="-8"/>
      <point x="156" y="23" name="fh01"/>
      <point x="133.5" y="49.5" type="qcurve" smooth="yes" name="inserted"/>
      <point x="111" y="76" name="fh02"/>
      <point x="90" y="147"/>
      <point x="96" y="187" type="qcurve" name="dh01"/>
      <point x="102" y="227"/>
      <point x="142" y="299" name="fh03"/>
      <point x="172.5" y="325.0" type="qcurve" smooth="yes" name="inserted"/>
      <point x="203" y="351" name="fh04"/>
      <point x="279" y="382"/>
      <point x="320" y="382" type="qcurve" name="at02"/>
      <point x="349" y="382"/>
      <point x="399" y="365" name="fh05"/>
      <point x="418.0" y="351.5" type="qcurve" smooth="yes" name="inserted"/>
      <point x="437" y="338"/>
      <point x="462" y="303"/>
      <point x="467" y="285" type="qcurve" name="sh03"/>
      <point x="470" y="307"/>
      <point x="479" y="352"/>
      <point x="482" y="375" type="qcurve"/>
      <point x="592" y="375" type="line" name="at01"/>
      <point x="586" y="335" type="line" name="sh05"/>
      <point x="510" y="335" type="line" name="sh04"/>
      <point x="434" y="-210" type="line" name="dh02"/>
      <point x="502" y="-210" type="line" name="sh06"/>
      <point x="497" y="-250" type="line"/>
      <point x="303" y="-250" type="line" name="ab02"/>
    </contour>
    <contour>
      <point x="138" y="187" type="qcurve" name="sh07"/>
      <point x="133" y="155"/>
      <point x="149" y="98" name="fh06"/>
      <point x="167.0" y="77.0" type="qcurve" smooth="yes" name="inserted"/>
      <point x="185" y="56" name="fh07"/>
      <point x="238" y="32"/>
      <point x="271" y="32" type="qcurve" name="sv01"/>
      <point x="304" y="32"/>
      <point x="364" y="56"/>
      <point x="388.0" y="77.0" type="qcurve" smooth="yes" name="inserted"/>
      <point x="412" y="98"/>
      <point x="443" y="155"/>
      <point x="448" y="187" type="qcurve" name="ih02"/>
      <point x="452" y="220"/>
      <point x="436" y="276"/>
      <point x="418.0" y="296.5" type="qcurve" smooth="yes" name="inserted"/>
      <point x="400" y="317"/>
      <point x="347" y="341"/>
      <point x="314" y="341" type="qcurve" name="sv02"/>
      <point x="281" y="341"/>
      <point x="222" y="317"/>
      <point x="198.0" y="296.5" type="qcurve" smooth="yes" name="inserted"/>
      <point x="174" y="276" name="fh08"/>
      <point x="142" y="220"/>
    </contour>
  </outline>
</glyph>
<glyph name="s" format="1">
  <advance width="322"/>
  <unicode hex="0073"/>
  <outline>
    <contour>
      <point x="104" y="103" type="line" name="sh02"/>
      <point x="98" y="52" type="line" name="sh03"/>
      <point x="115" y="39"/>
      <point x="156" y="33"/>
      <point x="177" y="33" type="qcurve" name="sv01"/>
      <point x="186" y="33"/>
      <point x="214" y="40"/>
      <point x="227.0" y="48.5" type="qcurve" smooth="yes" name="inserted"/>
      <point x="240" y="57"/>
      <point x="261" y="83"/>
      <point x="264" y="102" type="qcurve" name="sh04"/>
      <point x="268" y="128"/>
      <point x="245" y="156"/>
      <point x="226.0" y="164.5" type="qcurve" smooth="yes" name="inserted"/>
      <point x="207" y="173" name="sv02"/>
      <point x="160" y="186"/>
      <point x="141.0" y="197.0" type="qcurve" smooth="yes" name="inserted"/>
      <point x="122" y="208" name="fh01"/>
      <point x="99" y="244"/>
      <point x="104" y="277" type="qcurve" name="dh01"/>
      <point x="108" y="303"/>
      <point x="134" y="342"/>
      <point x="151.5" y="355.0" type="qcurve" smooth="yes" name="inserted"/>
      <point x="169" y="368"/>
      <point x="209" y="381"/>
      <point x="227" y="381" type="qcurve" name="at01"/>
      <point x="231" y="381"/>
      <point x="256" y="379"/>
      <point x="271.0" y="375.5" type="qcurve" smooth="yes" name="inserted"/>
      <point x="286" y="372"/>
      <point x="316" y="358"/>
      <point x="325" y="346" type="qcurve" name="sh06"/>
      <point x="315" y="272" type="line" name="sh05"/>
      <point x="277" y="272" type="line" name="sh07"/>
      <point x="284" y="325" type="line" name="sh08"/>
      <point x="278" y="331"/>
      <point x="259" y="337"/>
      <point x="250.0" y="338.5" type="qcurve" smooth="yes" name="inserted"/>
      <point x="241" y="340"/>
      <point x="225" y="340"/>
      <point x="222" y="340" type="qcurve" name="sv03"/>
      <point x="198" y="340"/>
      <point x="151" y="312"/>
      <point x="146" y="278" type="qcurve" name="sh09"/>
      <point x="144" y="256"/>
      <point x="168" y="231" name="fh02"/>
      <point x="187.5" y="222.5" type="qcurve" smooth="yes" name="inserted"/>
      <point x="207" y="214" name="iv01"/>
      <point x="252" y="199"/>
      <point x="270.5" y="187.0" type="qcurve" smooth="yes" name="inserted"/>
      <point x="289" y="175" name="fh03"/>
      <point x="311" y="137"/>
      <point x="306" y="105" type="qcurve" name="dh02"/>
      <point x="304" y="88"/>
      <point x="286" y="49" name="fh04"/>
      <point x="269.5" y="32.0" type="qcurve" smooth="yes" name="inserted"/>
      <point x="253" y="15" name="fh05"/>
      <point x="203" y="-8"/>
      <point x="170" y="-8" type="qcurve" name="ab01"/>
      <point x="160" y="-8"/>
      <point x="129" y="-5"/>
      <point x="112.5" y="-1.0" type="qcurve" smooth="yes" name="inserted"/>
      <point x="96" y="3"/>
      <point x="66" y="17"/>
      <point x="56" y="29" type="qcurve" name="sh10"/>
      <point x="66" y="103" type="line" name="sh01"/>
    </contour>
  </outline>
</glyph>
<glyph name="u" format="1">
  <advance width="539"/>
  <unicode hex="0075"/>
  <outline>
    <contour>
      <point x="88" y="375" type="line" name="at01"/>
      <point x="203" y="375" type="line" name="sh02"/>
      <point x="167" y="115" type="line" name="sh01"/>
      <point x="165" y="83"/>
      <point x="201" y="35" name="fh01"/>
      <point x="242" y="33" type="qcurve" name="sv01"/>
      <point x="273" y="33"/>
      <point x="331" y="54"/>
      <point x="355.0" y="72.0" type="qcurve" smooth="yes" name="inserted"/>
      <point x="379" y="90"/>
      <point x="411" y="140"/>
      <point x="416" y="170" type="qcurve" name="ih01"/>
      <point x="439" y="335" type="line" name="sh04"/>
      <point x="365" y="335" type="line" name="sh05"/>
      <point x="370" y="375" type="line" name="sv02"/>
      <point x="486" y="375" type="line" name="sh06"/>
      <point x="438" y="36" type="line" name="dh02"/>
      <point x="509" y="36" type="line" name="sh07"/>
      <point x="504" y="0" type="line" name="ab01"/>
      <point x="396" y="0" type="line"/>
      <point x="400" y="35" type="line" name="sh03"/>
      <point x="408" y="97" type="line" name="ih02"/>
      <point x="381" y="49"/>
      <point x="285" y="-8"/>
      <point x="230" y="-8" type="qcurve" name="ab02"/>
      <point x="175" y="-8" name="fh02"/>
      <point x="119" y="54" name="fh03"/>
      <point x="124" y="104" type="qcurve" name="dh01"/>
      <point x="156" y="335" type="line" name="sh08"/>
      <point x="82" y="335" type="line" name="sh09"/>
    </contour>
  </outline>
</glyph>
<glyph name="y" format="1">
  <advance width="601"/>
  <unicode hex="0079"/>
  <outline>
    <contour>
      <point x="97" y="-210" type="line" name="sh02"/>
      <point x="182" y="-210" type="line" name="sh01"/>
      <point x="214" y="-158"/>
      <point x="282" y="-53"/>
      <point x="315" y="-2" type="qcurve" name="ih02"/>
      <point x="284" y="83"/>
      <point x="223" y="250"/>
      <point x="193" y="335" type="qcurve" name="dh01"/>
      <point x="116" y="335" type="line" name="sh04"/>
      <point x="122" y="375" type="line" name="at01"/>
      <point x="307" y="375" type="line"/>
      <point x="302" y="335" type="line" name="sh06"/>
      <point x="238" y="335" type="line" name="sh05"/>
      <point x="265" y="260"/>
      <point x="320" y="113"/>
      <point x="343" y="38" type="qcurve" name="ih03"/>
      <point x="385" y="110" name="fh01"/>
      <point x="482" y="260"/>
      <point x="530" y="335" type="qcurve" name="sh03"/>
      <point x="472" y="335" type="line" name="sh07"/>
      <point x="478" y="375" type="line" name="sv01"/>
      <point x="653" y="375" type="line"/>
      <point x="647" y="335" type="line" name="sh08"/>
      <point x="575" y="335" type="line" name="dh02"/>
      <point x="487" y="198"/>
      <point x="314" y="-73"/>
      <point x="226" y="-210" type="qcurve" name="ih01"/>
      <point x="290" y="-210" type="line" name="sh09"/>
      <point x="285" y="-250" type="line"/>
      <point x="92" y="-250" type="line" name="ab01"/>
    </contour>
  </outline>
</glyph>
<glyph name="z" format="1">
  <advance width="431"/>
  <unicode hex="007A"/>
  <outline>
    <contour>
      <point x="409" y="94" type="line" name="sh01"/>
      <point x="396" y="0" type="line" name="dh02"/>
      <point x="35" y="0" type="line" name="dh01"/>
      <point x="40" y="41" type="line" name="sh02"/>
      <point x="83" y="78"/>
      <point x="163" y="151"/>
      <point x="203.0" y="187.5" type="qcurve" smooth="yes" name="inserted"/>
      <point x="243" y="224"/>
      <point x="323" y="297"/>
      <point x="366" y="335" type="qcurve" name="sh04"/>
      <point x="93" y="335" type="line" name="sh06"/>
      <point x="104" y="410" type="line" name="sh05"/>
      <point x="142" y="410" type="line" name="sh07"/>
      <point x="137" y="375" type="line" name="sh08"/>
      <point x="429" y="375" type="line" name="sh03"/>
      <point x="423" y="334" type="line" name="sv01"/>
      <point x="380" y="297"/>
      <point x="300" y="224"/>
      <point x="260.5" y="187.5" type="qcurve" smooth="yes" name="inserted"/>
      <point x="221" y="151"/>
      <point x="141" y="78"/>
      <point x="98" y="41" type="qcurve" name="sh09"/>
      <point x="363" y="41" type="line" name="sh11"/>
      <point x="371" y="94" type="line" name="sh10"/>
    </contour>
  </outline>
</glyph>
<glyph name="bar" format="1">
  <advance width="240"/>
  <unicode hex="007C"/>
  <outline>
    <contour>
      <point x="96" y="-232" type="line" name="ah01"/>
      <point x="226" y="700" type="line" name="sh01"/>
      <point x="268" y="700" type="line" name="sh03"/>
      <point x="138" y="-232" type="line" name="sh02"/>
    </contour>
  </outline>
</glyph>
<glyph name="cent" format="1">
  <advance width="385"/>
  <unicode hex="00A2"/>
  <outline>
    <contour>
      <point x="349" y="67" type="qcurve" name="sv01"/>
      <point x="370" y="36" type="line" name="ih01"/>
      <point x="344.0" y="16.5" name="inserted"/>
      <point x="284.5" y="-4.5"/>
      <point x="251" y="-6" type="qcurve" name="ih03"/>
      <point x="243" y="-68" type="line" name="sh01"/>
      <point x="201" y="-68" type="line" name="ih02"/>
      <point x="209" y="-3" type="line" name="ih04"/>
      <point x="174" y="2"/>
      <point x="119" y="36" name="fh01"/>
      <point x="100.5" y="61.5" type="qcurve" smooth="yes" name="inserted"/>
      <point x="82" y="87"/>
      <point x="66" y="152"/>
      <point x="71" y="188" type="qcurve" name="dh01"/>
      <point x="76" y="224"/>
      <point x="111" y="290" name="fh02"/>
      <point x="136.5" y="315.5" type="qcurve" smooth="yes" name="inserted"/>
      <point x="162" y="341" name="fh03"/>
      <point x="227" y="375"/>
      <point x="263" y="380" type="qcurve" name="ih05"/>
      <point x="272" y="438" type="line" name="sh02"/>
      <point x="314" y="438" type="line" name="sh03"/>
      <point x="306" y="383" type="line" name="ih06"/>
      <point x="338" y="381"/>
      <point x="394" y="359"/>
      <point x="414" y="340" type="qcurve"/>
      <point x="413" y="339" type="line"/>
      <point x="412.5" y="337.0" name="inserted"/>
      <point x="412.0" y="331.5"/>
      <point x="412" y="328" type="qcurve" name="sh04"/>
      <point x="399" y="241" type="line" name="dh02"/>
      <point x="361" y="241" type="line" name="sh05"/>
      <point x="372" y="316" type="line" name="sh06"/>
      <point x="358" y="327"/>
      <point x="321" y="341"/>
      <point x="300" y="341" type="qcurve" name="ih07"/>
      <point x="256" y="34" type="line" name="ih08"/>
      <point x="281" y="36"/>
      <point x="329" y="53" name="fh04"/>
    </contour>
    <contour>
      <point x="113" y="188" type="qcurve" name="sh07"/>
      <point x="105" y="131" name="fv01"/>
      <point x="163" y="49" name="fh05"/>
      <point x="215" y="39" type="qcurve" name="ih09"/>
      <point x="257" y="336" type="line" name="ih10"/>
      <point x="230" y="332"/>
      <point x="181" y="306"/>
      <point x="162.0" y="286.0" type="qcurve" smooth="yes" name="inserted"/>
      <point x="143" y="266"/>
      <point x="117" y="216"/>
    </contour>
  </outline>
</glyph>
<glyph name="sterling" format="1">
  <advance width="574"/>
  <unicode hex="00A3"/>
  <outline>
    <contour>
      <point x="510" y="0" type="line" name="ab01"/>
      <point x="27" y="0" type="line"/>
      <point x="32" y="41" type="line" name="sh01"/>
      <point x="76" y="41" type="line"/>
      <point x="93" y="41"/>
      <point x="116" y="53"/>
      <point x="123.5" y="67.5" type="qcurve" smooth="yes" name="inserted"/>
      <point x="131" y="82"/>
      <point x="141" y="132"/>
      <point x="147" y="171" type="qcurve"/>
      <point x="164" y="296" type="line" name="dh01"/>
      <point x="99" y="296" type="line" name="sh02"/>
      <point x="105" y="337" type="line"/>
      <point x="170" y="337" type="line" name="sh03"/>
      <point x="193" y="500" type="line"/>
      <point x="203" y="570" name="fh01"/>
      <point x="311" y="634" name="fv01"/>
      <point x="396" y="634" type="qcurve" name="av01"/>
      <point x="463" y="634" name="fh02"/>
      <point x="529" y="581" name="fh03"/>
      <point x="543" y="541" type="qcurve" name="ih01"/>
      <point x="509" y="522" type="line" name="sv02"/>
      <point x="501" y="539" name="sh04"/>
      <point x="484" y="565" name="fh04"/>
      <point x="471.0" y="574.0" type="qcurve" smooth="yes" name="inserted"/>
      <point x="458" y="583"/>
      <point x="419" y="593"/>
      <point x="390" y="593" type="qcurve" name="sv03"/>
      <point x="312" y="593" name="fh05"/>
      <point x="241" y="540"/>
      <point x="234" y="494" type="qcurve"/>
      <point x="212" y="337" type="line" name="sh06"/>
      <point x="336" y="337" type="line"/>
      <point x="330" y="296" type="line" name="sh07"/>
      <point x="206" y="296" type="line" name="sh05"/>
      <point x="183" y="131" type="line"/>
      <point x="178" y="102"/>
      <point x="165" y="55"/>
      <point x="148" y="41" type="qcurve" name="ih02"/>
      <point x="473" y="41" type="line" name="sv01"/>
      <point x="488" y="145" type="line" name="sh08"/>
      <point x="531" y="145" type="line" name="dh02"/>
    </contour>
  </outline>
</glyph>
<glyph name="currency" format="1">
  <advance width="500"/>
  <unicode hex="00A4"/>
  <outline>
    <contour>
      <point x="166" y="361" type="qcurve" name="sh01"/>
      <point x="163" y="340"/>
      <point x="174" y="302"/>
      <point x="186.0" y="288.0" type="qcurve" smooth="yes" name="inserted"/>
      <point x="198" y="274"/>
      <point x="233" y="258"/>
      <point x="254" y="258" type="qcurve" name="sv01"/>
      <point x="275" y="258"/>
      <point x="314" y="274"/>
      <point x="330.0" y="288.0" type="qcurve" smooth="yes" name="inserted"/>
      <point x="346" y="302"/>
      <point x="367" y="340"/>
      <point x="370" y="361" type="qcurve" name="sh03"/>
      <point x="373" y="382"/>
      <point x="362" y="419"/>
      <point x="350.5" y="433.0" type="qcurve" smooth="yes" name="inserted"/>
      <point x="339" y="447"/>
      <point x="304" y="463"/>
      <point x="283" y="463" type="qcurve" name="sv03"/>
      <point x="262" y="463"/>
      <point x="223" y="447"/>
      <point x="207.0" y="433.0" type="qcurve" smooth="yes" name="inserted"/>
      <point x="191" y="419"/>
      <point x="169" y="382"/>
    </contour>
    <contour>
      <point x="124" y="361" type="qcurve" name="ah01"/>
      <point x="128.0" y="385.0" name="inserted"/>
      <point x="148.0" y="426.5"/>
      <point x="164" y="444" type="qcurve"/>
      <point x="157" y="452"/>
      <point x="144" y="469"/>
      <point x="136" y="477" type="qcurve" name="fh01"/>
      <point x="170" y="506" type="line"/>
      <point x="198" y="474" type="line"/>
      <point x="218" y="488"/>
      <point x="263" y="504"/>
      <point x="288" y="504" type="qcurve" name="sv02"/>
      <point x="312" y="504"/>
      <point x="354" y="487"/>
      <point x="370" y="473" type="qcurve"/>
      <point x="406" y="506" type="line"/>
      <point x="432" y="476" type="line" name="fh02"/>
      <point x="396" y="445" type="line"/>
      <point x="407" y="427"/>
      <point x="416" y="384"/>
      <point x="412" y="361" type="qcurve" name="sh02"/>
      <point x="409" y="336"/>
      <point x="387" y="293" name="fh03"/>
      <point x="370" y="275" type="qcurve"/>
      <point x="399" y="240" type="line"/>
      <point x="366" y="211" type="line"/>
      <point x="358" y="219"/>
      <point x="343" y="237"/>
      <point x="335" y="245" type="qcurve"/>
      <point x="314.5" y="231.5" name="inserted"/>
      <point x="271.0" y="218.0"/>
      <point x="248" y="218" type="qcurve" name="av01"/>
      <point x="224.0" y="218.0" name="inserted"/>
      <point x="184.0" y="231.0"/>
      <point x="168" y="244" type="qcurve"/>
      <point x="129" y="210" type="line"/>
      <point x="103" y="239" type="line"/>
      <point x="142" y="274" type="line"/>
      <point x="130.0" y="293.0" name="inserted"/>
      <point x="121.0" y="336.5"/>
    </contour>
  </outline>
</glyph>
<glyph name="section" format="1">
  <advance width="500"/>
  <unicode hex="00A7"/>
  <outline>
    <contour>
      <point x="231" y="331" type="qcurve" name="fh01"/>
      <point x="236" y="305"/>
      <point x="273" y="276" name="fh02"/>
      <point x="300" y="276" type="qcurve" name="sv01"/>
      <point x="318" y="276"/>
      <point x="353" y="292" name="fh03"/>
      <point x="366.5" y="304.5" type="qcurve" smooth="yes" name="inserted"/>
      <point x="380" y="317"/>
      <point x="396" y="351"/>
      <point x="396" y="369" type="qcurve" name="sh01"/>
      <point x="396" y="406" name="fh04"/>
      <point x="347" y="445" name="fh05"/>
      <point x="315" y="445" type="qcurve" name="sv02"/>
      <point x="295" y="443"/>
      <point x="263" y="426" name="fh06"/>
      <point x="252.0" y="413.5" type="qcurve" smooth="yes" name="inserted"/>
      <point x="241" y="401"/>
      <point x="228" y="368"/>
      <point x="228" y="352" type="qcurve" name="sh02"/>
      <point x="228.0" y="346.5" name="inserted"/>
      <point x="229.5" y="336.0"/>
    </contour>
    <contour>
      <point x="260" y="152" type="qcurve"/>
      <point x="239" y="195"/>
      <point x="211" y="254" name="fh07"/>
      <point x="202.5" y="274.5" type="qcurve" smooth="yes" name="inserted"/>
      <point x="194" y="295"/>
      <point x="187" y="326"/>
      <point x="187" y="341" type="qcurve" name="dh01"/>
      <point x="187" y="365"/>
      <point x="206" y="415"/>
      <point x="223.0" y="435.0" type="qcurve" smooth="yes" name="inserted"/>
      <point x="240" y="455"/>
      <point x="286" y="481"/>
      <point x="314" y="481" type="qcurve" name="iv02"/>
      <point x="324" y="481"/>
      <point x="344" y="477"/>
      <point x="354" y="474" type="qcurve" name="mh01"/>
      <point x="344" y="494"/>
      <point x="323" y="540"/>
      <point x="314.0" y="562.0" type="qcurve" smooth="yes" name="inserted"/>
      <point x="305" y="584"/>
      <point x="294" y="623"/>
      <point x="294" y="637" type="qcurve" name="ih01"/>
      <point x="294" y="659"/>
      <point x="315" y="691" name="fh08"/>
      <point x="331.0" y="703.0" type="qcurve" smooth="yes" name="inserted"/>
      <point x="347" y="715" name="fh09"/>
      <point x="386" y="734"/>
      <point x="403" y="743" type="qcurve" name="av01"/>
      <point x="407" y="734"/>
      <point x="414" y="716"/>
      <point x="419" y="708" type="qcurve" name="sh03"/>
      <point x="370" y="681" type="line" name="fh10"/>
      <point x="355" y="673"/>
      <point x="340" y="652"/>
      <point x="340" y="637" type="qcurve" name="sh04"/>
      <point x="340.0" y="625.0" name="inserted"/>
      <point x="349.5" y="592.5"/>
      <point x="359" y="572" type="qcurve" name="fh11"/>
      <point x="426" y="421" type="line" name="fh12"/>
      <point x="431" y="410"/>
      <point x="436" y="387"/>
      <point x="436" y="375" type="qcurve" name="dh02"/>
      <point x="436" y="351"/>
      <point x="416" y="302"/>
      <point x="398.5" y="282.0" type="qcurve" smooth="yes" name="inserted"/>
      <point x="381" y="262"/>
      <point x="333" y="237"/>
      <point x="305" y="237" type="qcurve" name="iv01"/>
      <point x="294.0" y="237.0" name="inserted"/>
      <point x="275.5" y="240.5"/>
      <point x="268" y="244" type="qcurve" name="mh02"/>
      <point x="277" y="222"/>
      <point x="298" y="176" name="fh13"/>
      <point x="307.0" y="154.0" type="qcurve" smooth="yes" name="inserted"/>
      <point x="316" y="132"/>
      <point x="328" y="93"/>
      <point x="328" y="80" type="qcurve" name="ih02"/>
      <point x="328" y="57"/>
      <point x="307" y="25" name="fh14"/>
      <point x="291.0" y="13.0" type="qcurve" smooth="yes" name="inserted"/>
      <point x="275" y="1" name="fv01"/>
      <point x="237" y="-17"/>
      <point x="221" y="-26" type="qcurve" name="av02"/>
      <point x="216" y="-17"/>
      <point x="209" y="1"/>
      <point x="204" y="9" type="qcurve" name="sh05"/>
      <point x="254" y="36" type="line" name="fh15"/>
      <point x="268" y="44"/>
      <point x="282" y="63"/>
      <point x="282" y="78" type="qcurve" name="sh06"/>
      <point x="282.0" y="91.0" name="inserted"/>
      <point x="271.0" y="128.0"/>
    </contour>
  </outline>
</glyph>
<glyph name="dieresis" format="1">
  <advance width="370"/>
  <unicode hex="00A8"/>
  <outline>
    <contour>
      <point x="238" y="508" type="qcurve" name="sh01"/>
      <point x="240" y="522"/>
      <point x="263" y="541"/>
      <point x="276" y="541" type="qcurve" name="sv02"/>
      <point x="288" y="541"/>
      <point x="305" y="522"/>
      <point x="303" y="508" type="qcurve" name="sh02"/>
      <point x="301" y="494"/>
      <point x="280" y="475"/>
      <point x="267" y="475" type="qcurve" name="sv03"/>
      <point x="254" y="475"/>
      <point x="236" y="494"/>
    </contour>
    <contour>
      <point x="73" y="508" type="qcurve" name="ah01"/>
      <point x="75" y="522"/>
      <point x="97" y="541"/>
      <point x="110" y="541" type="qcurve" name="sv01"/>
      <point x="123" y="541"/>
      <point x="140" y="522"/>
      <point x="138" y="508" type="qcurve" name="sh03"/>
      <point x="136" y="494"/>
      <point x="114" y="475"/>
      <point x="102" y="475" type="qcurve" name="av01"/>
      <point x="89" y="475"/>
      <point x="71" y="494"/>
    </contour>
  </outline>
</glyph>
<glyph name="copyright" format="1">
  <advance width="793"/>
  <unicode hex="00A9"/>
  <outline>
    <contour>
      <point x="402" y="138" type="qcurve" name="sv01"/>
      <point x="451" y="138"/>
      <point x="541" y="173" name="fh01"/>
      <point x="577.5" y="204.5" type="qcurve" smooth="yes" name="inserted"/>
      <point x="614" y="236" name="fv01"/>
      <point x="662" y="321"/>
      <point x="669" y="371" type="qcurve" name="sh02"/>
      <point x="676" y="422"/>
      <point x="652" y="508" name="fh02"/>
      <point x="624.5" y="539.5" type="qcurve" smooth="yes" name="inserted"/>
      <point x="597" y="571" name="fh03"/>
      <point x="517" y="607"/>
      <point x="468" y="607" type="qcurve" name="sv03"/>
      <point x="420" y="607"/>
      <point x="330" y="571" name="fv02"/>
      <point x="294.0" y="539.5" type="qcurve" smooth="yes" name="inserted"/>
      <point x="258" y="508" name="fh04"/>
      <point x="209" y="422"/>
      <point x="202" y="371" type="qcurve" name="sh03"/>
      <point x="195" y="321"/>
      <point x="219" y="236" name="fh05"/>
      <point x="246.5" y="204.5" type="qcurve" smooth="yes" name="inserted"/>
      <point x="274" y="173" name="fh06"/>
      <point x="354" y="138"/>
    </contour>
    <contour>
      <point x="400" y="115" type="qcurve" name="av01"/>
      <point x="346" y="115"/>
      <point x="257" y="154" name="fh07"/>
      <point x="227.0" y="188.5" type="qcurve" smooth="yes" name="inserted"/>
      <point x="197" y="223" name="fh08"/>
      <point x="169" y="317"/>
      <point x="177" y="372" type="qcurve" name="ah01"/>
      <point x="185" y="428"/>
      <point x="239" y="522" name="fh09"/>
      <point x="278.5" y="556.5" type="qcurve" smooth="yes" name="inserted"/>
      <point x="318" y="591" name="fh10"/>
      <point x="418" y="630"/>
      <point x="472" y="630" type="qcurve" name="sv02"/>
      <point x="526" y="630"/>
      <point x="615" y="591" name="fh11"/>
      <point x="645.0" y="556.5" type="qcurve" smooth="yes" name="inserted"/>
      <point x="675" y="522" name="fh12"/>
      <point x="702" y="428"/>
      <point x="694" y="372" type="qcurve" name="sh01"/>
      <point x="686" y="317"/>
      <point x="633" y="223" name="fh13"/>
      <point x="593.0" y="188.5" type="qcurve" smooth="yes" name="inserted"/>
      <point x="553" y="154" name="fh14"/>
      <point x="454" y="115"/>
    </contour>
    <contour>
      <point x="519" y="464" type="line" name="sh05"/>
      <point x="524" y="503" type="line"/>
      <point x="509.5" y="511.0" name="inserted"/>
      <point x="478.5" y="519.0"/>
      <point x="462" y="519" type="qcurve" name="sv05"/>
      <point x="432" y="519"/>
      <point x="377" y="496"/>
      <point x="355.0" y="476.5" type="qcurve" smooth="yes" name="inserted"/>
      <point x="333" y="457" name="fh15"/>
      <point x="303" y="404"/>
      <point x="299" y="374" type="qcurve" name="sh06"/>
      <point x="295" y="345"/>
      <point x="310" y="293"/>
      <point x="326.5" y="273.5" type="qcurve" smooth="yes" name="inserted"/>
      <point x="343" y="254" name="fh16"/>
      <point x="391" y="231"/>
      <point x="420" y="231" type="qcurve" name="sv06"/>
      <point x="440" y="231"/>
      <point x="478" y="242"/>
      <point x="496" y="251" type="qcurve" name="sv07"/>
      <point x="505" y="236" type="line" name="sh07"/>
      <point x="485" y="225"/>
      <point x="442" y="213"/>
      <point x="419" y="213" type="qcurve" name="iv01"/>
      <point x="386" y="213"/>
      <point x="330" y="239" name="fh17"/>
      <point x="311.5" y="261.0" type="qcurve" smooth="yes" name="inserted"/>
      <point x="293" y="283" name="fh18"/>
      <point x="275" y="342"/>
      <point x="280" y="375" type="qcurve" name="ih01"/>
      <point x="285" y="409"/>
      <point x="319" y="468" name="fh19"/>
      <point x="343.5" y="490.0" type="qcurve" smooth="yes" name="inserted"/>
      <point x="368" y="512"/>
      <point x="431" y="537"/>
      <point x="464" y="537" type="qcurve" name="sv04"/>
      <point x="486.5" y="537.0" name="inserted"/>
      <point x="526.5" y="526.0"/>
      <point x="544" y="515" type="qcurve"/>
      <point x="537" y="464" type="line" name="sh04"/>
    </contour>
  </outline>
</glyph>
<glyph name="ordfeminine" format="1">
  <advance width="585"/>
  <unicode hex="00AA"/>
  <outline>
    <contour>
      <point x="103" y="442" type="qcurve" name="ah01"/>
      <point x="107" y="470"/>
      <point x="136" y="522" name="fh01"/>
      <point x="158.0" y="541.0" type="qcurve" smooth="yes" name="inserted"/>
      <point x="180" y="560" name="fh02"/>
      <point x="235" y="582"/>
      <point x="264" y="582" type="qcurve" name="av01"/>
      <point x="285" y="582"/>
      <point x="321" y="570"/>
      <point x="335.0" y="560.5" type="qcurve" smooth="yes" name="inserted"/>
      <point x="349" y="551" name="fh03"/>
      <point x="367" y="525"/>
      <point x="370" y="513" type="qcurve" name="sh03"/>
      <point x="372" y="529"/>
      <point x="378" y="561"/>
      <point x="381" y="576" type="qcurve" name="ih02"/>
      <point x="406" y="576" type="line" name="sh04"/>
      <point x="372" y="335" type="line" name="sh01"/>
      <point x="425" y="335" type="line" name="sh05"/>
      <point x="421" y="306" type="line" name="sv02"/>
      <point x="341" y="306" type="line"/>
      <point x="345" y="335" type="line" name="sh02"/>
      <point x="347" y="344"/>
      <point x="348" y="360"/>
      <point x="349" y="368" type="qcurve" name="iv01"/>
      <point x="343" y="356"/>
      <point x="319" y="331"/>
      <point x="303.0" y="321.5" type="qcurve" smooth="yes" name="inserted"/>
      <point x="287" y="312"/>
      <point x="247" y="301"/>
      <point x="225" y="301" type="qcurve" name="sv01"/>
      <point x="196" y="301"/>
      <point x="147" y="323"/>
      <point x="130.5" y="342.0" type="qcurve" smooth="yes" name="inserted"/>
      <point x="114" y="361"/>
      <point x="98" y="412"/>
    </contour>
    <contour>
      <point x="133" y="442" type="qcurve" name="sh06"/>
      <point x="129" y="419"/>
      <point x="141" y="378" name="fh04"/>
      <point x="154.0" y="363.0" type="qcurve" smooth="yes" name="inserted"/>
      <point x="167" y="348" name="fh05"/>
      <point x="205" y="331"/>
      <point x="229" y="331" type="qcurve" name="sv03"/>
      <point x="253" y="331"/>
      <point x="296" y="348"/>
      <point x="313.5" y="363.0" type="qcurve" smooth="yes" name="inserted"/>
      <point x="331" y="378"/>
      <point x="353" y="419"/>
      <point x="357" y="442" type="qcurve" name="ih01"/>
      <point x="360" y="465"/>
      <point x="348" y="506"/>
      <point x="335.0" y="521.0" type="qcurve" smooth="yes" name="inserted"/>
      <point x="322" y="536"/>
      <point x="284" y="553"/>
      <point x="260" y="553" type="qcurve" name="sv04"/>
      <point x="236" y="553"/>
      <point x="194" y="536"/>
      <point x="176.5" y="521.0" type="qcurve" smooth="yes" name="inserted"/>
      <point x="159" y="506" name="fh06"/>
      <point x="136" y="465"/>
    </contour>
  </outline>
</glyph>
<glyph name="guillemotleft" format="1">
  <advance width="601"/>
  <unicode hex="00AB"/>
  <outline>
    <contour>
      <point x="459" y="77" type="line" name="sh02"/>
      <point x="310" y="239" type="line" name="sh01"/>
      <point x="359" y="280"/>
      <point x="455" y="359"/>
      <point x="504" y="400" type="qcurve" name="sh03"/>
      <point x="498" y="352" type="line" name="sv02"/>
      <point x="466.5" y="324.5" name="inserted"/>
      <point x="402.5" y="268.0"/>
      <point x="370" y="239" type="qcurve" name="sh04"/>
      <point x="393" y="210"/>
      <point x="442" y="154"/>
      <point x="465" y="125" type="qcurve" name="sv04"/>
    </contour>
    <contour>
      <point x="288" y="77" type="line" name="sh05"/>
      <point x="139" y="239" type="line" name="ah01"/>
      <point x="188" y="280"/>
      <point x="284" y="359"/>
      <point x="333" y="400" type="qcurve" name="sh06"/>
      <point x="327" y="352" type="line" name="sv01"/>
      <point x="295" y="323"/>
      <point x="231" y="268"/>
      <point x="199" y="239" type="qcurve" name="sh07"/>
      <point x="222" y="210"/>
      <point x="271" y="154"/>
      <point x="294" y="125" type="qcurve" name="sv03"/>
    </contour>
  </outline>
</glyph>
<glyph name="registered" format="1">
  <advance width="801"/>
  <unicode hex="00AE"/>
  <outline>
    <contour>
      <point x="402" y="138" type="qcurve" name="sv01"/>
      <point x="451" y="138"/>
      <point x="541" y="173" name="fv01"/>
      <point x="577.5" y="204.5" type="qcurve" smooth="yes" name="inserted"/>
      <point x="614" y="236" name="fh01"/>
      <point x="662" y="321"/>
      <point x="669" y="371" type="qcurve" name="sh02"/>
      <point x="676" y="422"/>
      <point x="652" y="508" name="fh02"/>
      <point x="624.5" y="539.5" type="qcurve" smooth="yes" name="inserted"/>
      <point x="597" y="571" name="fh03"/>
      <point x="517" y="607"/>
      <point x="468" y="607" type="qcurve" name="sv03"/>
      <point x="420" y="607"/>
      <point x="330" y="571" name="fv02"/>
      <point x="294.0" y="539.5" type="qcurve" smooth="yes" name="inserted"/>
      <point x="258" y="508" name="fh04"/>
      <point x="209" y="422"/>
      <point x="202" y="371" type="qcurve" name="sh03"/>
      <point x="195" y="321"/>
      <point x="219" y="236" name="fh05"/>
      <point x="246.5" y="204.5" type="qcurve" smooth="yes" name="inserted"/>
      <point x="274" y="173" name="fh06"/>
      <point x="354" y="138"/>
    </contour>
    <contour>
      <point x="400" y="115" type="qcurve" name="av01"/>
      <point x="346" y="115"/>
      <point x="257" y="154" name="fh07"/>
      <point x="227.0" y="188.5" type="qcurve" smooth="yes" name="inserted"/>
      <point x="197" y="223" name="fh08"/>
      <point x="169" y="317"/>
      <point x="177" y="372" type="qcurve" name="ah01"/>
      <point x="185" y="428"/>
      <point x="239" y="522" name="fh09"/>
      <point x="278.5" y="556.5" type="qcurve" smooth="yes" name="inserted"/>
      <point x="318" y="591" name="fh10"/>
      <point x="418" y="630"/>
      <point x="472" y="630" type="qcurve" name="sv02"/>
      <point x="526" y="630"/>
      <point x="615" y="591" name="fh11"/>
      <point x="645.0" y="556.5" type="qcurve" smooth="yes" name="inserted"/>
      <point x="675" y="522" name="fh12"/>
      <point x="702" y="428"/>
      <point x="694" y="372" type="qcurve" name="sh01"/>
      <point x="686" y="317"/>
      <point x="633" y="223" name="fh13"/>
      <point x="593.0" y="188.5" type="qcurve" smooth="yes" name="inserted"/>
      <point x="553" y="154" name="fh14"/>
      <point x="454" y="115"/>
    </contour>
    <contour>
      <point x="313" y="229" type="line" name="sh04"/>
      <point x="342" y="229" type="line" name="ih01"/>
      <point x="383" y="522" type="line" name="sh05"/>
      <point x="354" y="522" type="line" name="sh06"/>
      <point x="357" y="541" type="line" name="sv04"/>
      <point x="457" y="541" type="line"/>
      <point x="471" y="541"/>
      <point x="505" y="531"/>
      <point x="519.0" y="520.5" type="qcurve" smooth="yes" name="inserted"/>
      <point x="533" y="510"/>
      <point x="549" y="477"/>
      <point x="546" y="454" type="qcurve" name="sh07"/>
      <point x="541" y="421"/>
      <point x="498" y="376"/>
      <point x="463" y="368" type="qcurve" name="ih03"/>
      <point x="509" y="229" type="line" name="sh10"/>
      <point x="550" y="229" type="line" name="sh11"/>
      <point x="548" y="210" type="line"/>
      <point x="494" y="210" type="line" name="sh13"/>
      <point x="442" y="367" type="line" name="sh12"/>
      <point x="437" y="366"/>
      <point x="425" y="366"/>
      <point x="420" y="366" type="qcurve"/>
      <point x="381" y="366" type="line" name="ih02"/>
      <point x="361" y="229" type="line" name="sh08"/>
      <point x="408" y="229" type="line" name="sh14"/>
      <point x="406" y="210" type="line" name="iv01"/>
      <point x="311" y="210" type="line"/>
    </contour>
    <contour>
      <point x="383" y="385" type="line" name="ih04"/>
      <point x="432" y="385" type="line"/>
      <point x="457" y="385"/>
      <point x="491" y="398" name="fh15"/>
      <point x="502.0" y="408.5" type="qcurve" smooth="yes" name="inserted"/>
      <point x="513" y="419"/>
      <point x="524" y="443"/>
      <point x="526" y="454" type="qcurve" name="sh15"/>
      <point x="530" y="481"/>
      <point x="488" y="522"/>
      <point x="452" y="522" type="qcurve"/>
      <point x="403" y="522" type="line" name="sh09"/>
    </contour>
  </outline>
</glyph>
<glyph name="plusminus" format="1">
  <advance width="524"/>
  <unicode hex="00B1"/>
  <outline>
    <contour>
      <point x="257" y="211" type="line" name="ah01"/>
      <point x="279" y="371" type="line" name="ih01"/>
      <point x="120" y="371" type="line" name="sh02"/>
      <point x="126" y="412" type="line"/>
      <point x="285" y="412" type="line" name="ih02"/>
      <point x="308" y="571" type="line" name="sh01"/>
      <point x="350" y="571" type="line" name="sh04"/>
      <point x="327" y="412" type="line" name="ih03"/>
      <point x="486" y="412" type="line"/>
      <point x="480" y="371" type="line" name="sh05"/>
      <point x="321" y="371" type="line" name="ih04"/>
      <point x="299" y="211" type="line" name="sh03"/>
    </contour>
    <contour>
      <point x="446" y="122" type="line" name="sh06"/>
      <point x="86" y="122" type="line" name="sh07"/>
      <point x="91" y="162" type="line" name="sv01"/>
      <point x="451" y="162" type="line"/>
    </contour>
  </outline>
</glyph>
<glyph name="twosuperior" format="1">
  <advance width="398"/>
  <unicode hex="00B2"/>
  <outline>
    <contour>
      <point x="133" y="395" type="qcurve" name="sh02"/>
      <point x="268" y="395" type="line" name="sh06"/>
      <point x="276" y="447" type="line" name="sh05"/>
      <point x="296" y="447" type="line" name="sh04"/>
      <point x="285" y="375" type="line" name="sh07"/>
      <point x="80" y="375" type="line" name="sh01"/>
      <point x="116" y="406"/>
      <point x="183" y="464" name="iv01"/>
      <point x="209.5" y="492.0" type="qcurve" smooth="yes" name="inserted"/>
      <point x="236" y="520"/>
      <point x="271" y="572"/>
      <point x="275" y="595" type="qcurve" name="sh08"/>
      <point x="278" y="619"/>
      <point x="268" y="652"/>
      <point x="259.0" y="661.5" type="qcurve" smooth="yes" name="inserted"/>
      <point x="250" y="671"/>
      <point x="225" y="680"/>
      <point x="215" y="680" type="qcurve" name="sv01"/>
      <point x="192" y="680"/>
      <point x="162" y="664" name="fh01"/>
      <point x="152.0" y="652.5" type="qcurve" smooth="yes" name="inserted"/>
      <point x="142" y="641"/>
      <point x="132" y="615"/>
      <point x="130" y="604" type="qcurve" name="sh09"/>
      <point x="127.5" y="587.5" name="inserted"/>
      <point x="133.5" y="560.0"/>
      <point x="142" y="549" type="qcurve" name="sh10"/>
      <point x="128" y="537" type="line" name="sv02"/>
      <point x="117" y="548"/>
      <point x="107" y="584"/>
      <point x="110" y="604" type="qcurve" name="ah01"/>
      <point x="113" y="623"/>
      <point x="130" y="658" name="fh02"/>
      <point x="143.5" y="671.5" type="qcurve" smooth="yes" name="inserted"/>
      <point x="157" y="685" name="fh03"/>
      <point x="195" y="700"/>
      <point x="217" y="700" type="qcurve" name="at01"/>
      <point x="238" y="700"/>
      <point x="270" y="685"/>
      <point x="280.5" y="671.5" type="qcurve" smooth="yes" name="inserted"/>
      <point x="291" y="658"/>
      <point x="299" y="622"/>
      <point x="296" y="601" type="qcurve" name="sh03"/>
      <point x="292" y="575"/>
      <point x="261" y="522"/>
      <point x="238.0" y="496.0" type="qcurve" smooth="yes" name="inserted"/>
      <point x="215" y="470" name="iv02"/>
      <point x="160" y="420"/>
    </contour>
  </outline>
</glyph>
<glyph name="paragraph" format="1">
  <advance width="512"/>
  <unicode hex="00B6"/>
  <outline>
    <contour>
      <point x="243" y="0" type="line" name="sh01"/>
      <point x="201" y="0" type="line" name="ah01"/>
      <point x="260" y="423" type="line" name="sh02"/>
      <point x="226" y="423"/>
      <point x="170" y="448"/>
      <point x="151.0" y="470.0" type="qcurve" smooth="yes" name="inserted"/>
      <point x="132" y="492"/>
      <point x="115" y="552"/>
      <point x="120" y="586" type="qcurve" name="sh03"/>
      <point x="125" y="620"/>
      <point x="159" y="680"/>
      <point x="184.0" y="702.0" type="qcurve" smooth="yes" name="inserted"/>
      <point x="209" y="724"/>
      <point x="272" y="750"/>
      <point x="306" y="750" type="qcurve"/>
      <point x="603" y="750" type="line" name="at01"/>
      <point x="598" y="714" type="line" name="sh05"/>
      <point x="505" y="714" type="line" name="sh04"/>
      <point x="410" y="36" type="line" name="sh06"/>
      <point x="502" y="36" type="line" name="sh07"/>
      <point x="498" y="0" type="line" name="ab01"/>
      <point x="364" y="0" type="line" name="sh09"/>
      <point x="464" y="714" type="line" name="sh08"/>
      <point x="342" y="714" type="line" name="sh10"/>
    </contour>
  </outline>
</glyph>
<glyph name="cedilla" format="1">
  <advance width="452"/>
  <unicode hex="00B8"/>
  <outline>
    <contour>
      <point x="222" y="0" type="line" name="sh01"/>
      <point x="251" y="0" type="line" name="sh02"/>
      <point x="250" y="-6" type="line"/>
      <point x="248" y="-20"/>
      <point x="253" y="-37"/>
      <point x="258.5" y="-43.0" type="qcurve" smooth="yes" name="inserted"/>
      <point x="264" y="-49"/>
      <point x="277" y="-57"/>
      <point x="283" y="-61" type="qcurve"/>
      <point x="303" y="-76"/>
      <point x="316" y="-115"/>
      <point x="314" y="-133" type="qcurve" name="ah01"/>
      <point x="307" y="-181" name="fh01"/>
      <point x="249" y="-234" name="fh02"/>
      <point x="208" y="-234" type="qcurve" name="av01"/>
      <point x="179" y="-234"/>
      <point x="132" y="-202"/>
      <point x="126" y="-169" type="qcurve" name="sh03"/>
      <point x="134" y="-166"/>
      <point x="147" y="-160"/>
      <point x="155" y="-157" type="qcurve" name="sv01"/>
      <point x="158" y="-176" name="sh04"/>
      <point x="186" y="-201"/>
      <point x="209" y="-201" type="qcurve" name="sv02"/>
      <point x="237" y="-201"/>
      <point x="276" y="-163"/>
      <point x="280" y="-135" type="qcurve" name="sh05"/>
      <point x="284" y="-110"/>
      <point x="264" y="-83"/>
      <point x="251.0" y="-73.0" type="qcurve" smooth="yes" name="inserted"/>
      <point x="238" y="-63"/>
      <point x="216" y="-42"/>
      <point x="219" y="-23" type="qcurve"/>
    </contour>
  </outline>
</glyph>
<glyph name="ordmasculine" format="1">
  <advance width="469"/>
  <unicode hex="00BA"/>
  <outline>
    <contour>
      <point x="110" y="442" type="qcurve" name="ah01"/>
      <point x="115" y="470"/>
      <point x="144" y="522" name="fh01"/>
      <point x="165.5" y="541.5" type="qcurve" smooth="yes" name="inserted"/>
      <point x="187" y="561" name="fh02"/>
      <point x="242" y="583"/>
      <point x="271" y="583" type="qcurve" name="av01"/>
      <point x="301" y="583"/>
      <point x="350" y="561"/>
      <point x="367.0" y="541.5" type="qcurve" smooth="yes" name="inserted"/>
      <point x="384" y="522"/>
      <point x="399" y="470"/>
      <point x="395" y="442" type="qcurve" name="sh01"/>
      <point x="390" y="412"/>
      <point x="361" y="361" name="fh03"/>
      <point x="339.0" y="342.0" type="qcurve" smooth="yes" name="inserted"/>
      <point x="317" y="323" name="fh04"/>
      <point x="262" y="301"/>
      <point x="232" y="301" type="qcurve" name="sv01"/>
      <point x="203" y="301"/>
      <point x="154" y="323"/>
      <point x="137.5" y="342.0" type="qcurve" smooth="yes" name="inserted"/>
      <point x="121" y="361"/>
      <point x="106" y="412"/>
    </contour>
    <contour>
      <point x="140" y="442" type="qcurve" name="sh02"/>
      <point x="136" y="419"/>
      <point x="149" y="378"/>
      <point x="162.0" y="363.0" type="qcurve" smooth="yes" name="inserted"/>
      <point x="175" y="348" name="fh05"/>
      <point x="212" y="331"/>
      <point x="235" y="331" type="qcurve" name="sv02"/>
      <point x="258" y="331"/>
      <point x="302" y="348"/>
      <point x="319.0" y="363.0" type="qcurve" smooth="yes" name="inserted"/>
      <point x="336" y="378"/>
      <point x="359" y="419"/>
      <point x="363" y="442" type="qcurve" name="sh03"/>
      <point x="366" y="465"/>
      <point x="354" y="505" name="fh06"/>
      <point x="341.0" y="520.0" type="qcurve" smooth="yes" name="inserted"/>
      <point x="328" y="535" name="fh07"/>
      <point x="290" y="553"/>
      <point x="267" y="553" type="qcurve" name="sv03"/>
      <point x="244" y="553"/>
      <point x="201" y="535"/>
      <point x="183.5" y="520.0" type="qcurve" smooth="yes" name="inserted"/>
      <point x="166" y="505"/>
      <point x="143" y="465"/>
    </contour>
  </outline>
</glyph>
<glyph name="guillemotright" format="1">
  <advance width="601"/>
  <unicode hex="00BB"/>
  <outline>
    <contour>
      <point x="123" y="125" type="line" name="sv02"/>
      <point x="155" y="154"/>
      <point x="218" y="210"/>
      <point x="250" y="239" type="qcurve" name="sh02"/>
      <point x="227" y="268"/>
      <point x="179" y="324"/>
      <point x="156" y="352" type="qcurve" name="sv04"/>
      <point x="162" y="400" type="line" name="sh03"/>
      <point x="199" y="359"/>
      <point x="273" y="280"/>
      <point x="310" y="239" type="qcurve" name="sh01"/>
      <point x="117" y="77" type="line" name="sh04"/>
    </contour>
    <contour>
      <point x="294" y="125" type="line" name="sv01"/>
      <point x="326" y="154"/>
      <point x="389" y="210"/>
      <point x="421" y="239" type="qcurve" name="sh05"/>
      <point x="398" y="268"/>
      <point x="350" y="323"/>
      <point x="327" y="352" type="qcurve" name="sv03"/>
      <point x="333" y="400" type="line" name="sh06"/>
      <point x="370" y="359"/>
      <point x="444" y="280"/>
      <point x="481" y="239" type="qcurve" name="ah01"/>
      <point x="288" y="77" type="line" name="sh07"/>
    </contour>
  </outline>
</glyph>
<glyph name="onequarter" format="1">
  <advance width="968"/>
  <unicode hex="00BC"/>
  <outline>
    <contour>
      <point x="226" y="-19" type="line" name="ih01"/>
      <point x="323" y="171"/>
      <point x="513" y="546"/>
      <point x="610" y="735" type="qcurve" name="sh03"/>
      <point x="652" y="735" type="line" name="sh02"/>
      <point x="555" y="546"/>
      <point x="365" y="171"/>
      <point x="268" y="-19" type="qcurve" name="sh04"/>
    </contour>
    <contour>
      <point x="655" y="30" type="line" name="sh05"/>
      <point x="712" y="30" type="line" name="ah02"/>
      <point x="727" y="136" type="line" name="ih02"/>
      <point x="486" y="136" type="line" name="sh07"/>
      <point x="808" y="490" type="line" name="sh08"/>
      <point x="762" y="167" type="line" name="ih03"/>
      <point x="834" y="167" type="line"/>
      <point x="830" y="136" type="line"/>
      <point x="758" y="136" type="line" name="ih04"/>
      <point x="743" y="30" type="line" name="sh01"/>
      <point x="805" y="30" type="line" name="sh09"/>
      <point x="800" y="0" type="line" name="ab01"/>
      <point x="651" y="0" type="line"/>
    </contour>
    <contour>
      <point x="763" y="398" type="line" name="sh06"/>
      <point x="553" y="167" type="line" name="sh10"/>
      <point x="731" y="167" type="line" name="ih05"/>
    </contour>
    <contour>
      <point x="113" y="262" type="line" name="sh11"/>
      <point x="170" y="262" type="line" name="ah01"/>
      <point x="226" y="666" type="line" name="sh12"/>
      <point x="159" y="666" type="line" name="sh13"/>
      <point x="163" y="695" type="line" name="at01"/>
      <point x="260" y="695" type="line" name="sh15"/>
      <point x="200" y="262" type="line" name="sh14"/>
      <point x="256" y="262" type="line" name="sh16"/>
      <point x="252" y="234" type="line"/>
      <point x="110" y="234" type="line" name="sv01"/>
    </contour>
  </outline>
</glyph>
<glyph name="onehalf" format="1">
  <advance width="1069"/>
  <unicode hex="00BD"/>
  <outline>
    <contour>
      <point x="103" y="262" type="line" name="sh01"/>
      <point x="160" y="262" type="line" name="ah01"/>
      <point x="216" y="666" type="line" name="sh02"/>
      <point x="149" y="666" type="line" name="sh03"/>
      <point x="153" y="695" type="line" name="at01"/>
      <point x="250" y="695" type="line" name="sh05"/>
      <point x="190" y="262" type="line" name="sh04"/>
      <point x="246" y="262" type="line" name="sh06"/>
      <point x="243" y="234" type="line"/>
      <point x="100" y="234" type="line" name="sv01"/>
    </contour>
    <contour>
      <point x="627" y="29" type="qcurve" name="sh09"/>
      <point x="820" y="29" type="line" name="sh12"/>
      <point x="830" y="103" type="line" name="sh11"/>
      <point x="859" y="103" type="line" name="sh10"/>
      <point x="844" y="0" type="line" name="sh13"/>
      <point x="550" y="0" type="line" name="sh08"/>
      <point x="601" y="44" name="fh01"/>
      <point x="697" y="128" name="iv01"/>
      <point x="735.5" y="168.0" type="qcurve" smooth="yes" name="inserted"/>
      <point x="774" y="208"/>
      <point x="824" y="282"/>
      <point x="829" y="316" type="qcurve" name="sh14"/>
      <point x="834" y="350"/>
      <point x="820" y="396" name="fh02"/>
      <point x="806.5" y="410.5" type="qcurve" smooth="yes" name="inserted"/>
      <point x="793" y="425" name="fh03"/>
      <point x="758" y="437"/>
      <point x="743" y="437" type="qcurve" name="sv03"/>
      <point x="711" y="437"/>
      <point x="667" y="414"/>
      <point x="653.0" y="398.0" type="qcurve" smooth="yes" name="inserted"/>
      <point x="639" y="382" name="fh04"/>
      <point x="625" y="343"/>
      <point x="622" y="328" type="qcurve" name="sh15"/>
      <point x="618.5" y="304.0" name="inserted"/>
      <point x="627.0" y="265.0"/>
      <point x="639" y="250" type="qcurve" name="sh16"/>
      <point x="619" y="232" type="line" name="sv04"/>
      <point x="603" y="248"/>
      <point x="589" y="300"/>
      <point x="593" y="328" type="qcurve" name="sh07"/>
      <point x="597" y="356"/>
      <point x="622" y="406" name="fh05"/>
      <point x="641.5" y="425.0" type="qcurve" smooth="yes" name="inserted"/>
      <point x="661" y="444" name="fh06"/>
      <point x="714" y="466"/>
      <point x="747" y="466" type="qcurve" name="sv02"/>
      <point x="777" y="466"/>
      <point x="823" y="444"/>
      <point x="837.5" y="425.0" type="qcurve" smooth="yes" name="inserted"/>
      <point x="852" y="406"/>
      <point x="864" y="354"/>
      <point x="859" y="324" type="qcurve" name="ah02"/>
      <point x="854" y="286"/>
      <point x="808" y="210"/>
      <point x="775.5" y="173.5" type="qcurve" smooth="yes" name="inserted"/>
      <point x="743" y="137" name="iv02"/>
      <point x="665" y="64"/>
    </contour>
    <contour>
      <point x="226" y="-19" type="line" name="ih01"/>
      <point x="323" y="171"/>
      <point x="513" y="546"/>
      <point x="610" y="735" type="qcurve" name="sh18"/>
      <point x="652" y="735" type="line" name="sh17"/>
      <point x="555" y="546"/>
      <point x="365" y="171"/>
      <point x="268" y="-19" type="qcurve" name="sh19"/>
    </contour>
  </outline>
</glyph>
<glyph name="threequarters" format="1">
  <advance width="1276"/>
  <unicode hex="00BE"/>
  <outline>
    <contour>
      <point x="218" y="474" type="qcurve" name="ih01"/>
      <point x="388" y="677" type="line" name="sh03"/>
      <point x="227" y="677" type="line" name="sv02"/>
      <point x="221" y="630" type="line"/>
      <point x="190" y="630" type="line" name="sh04"/>
      <point x="201" y="708" type="line" name="at01"/>
      <point x="450" y="708" type="line" name="sh02"/>
      <point x="287" y="518" type="line" name="sh05"/>
      <point x="317" y="516"/>
      <point x="368" y="490" name="fh01"/>
      <point x="385.5" y="469.5" type="qcurve" smooth="yes" name="inserted"/>
      <point x="403" y="449" name="fh02"/>
      <point x="419" y="394"/>
      <point x="415" y="361" type="qcurve" name="ah01"/>
      <point x="410" y="328"/>
      <point x="375" y="269" name="fh03"/>
      <point x="350.0" y="247.0" type="qcurve" smooth="yes" name="inserted"/>
      <point x="325" y="225" name="fh04"/>
      <point x="263" y="200"/>
      <point x="230" y="200" type="qcurve" name="sv01"/>
      <point x="194" y="200"/>
      <point x="138" y="228"/>
      <point x="118" y="252" type="qcurve" name="sh01"/>
      <point x="145" y="276" type="line" name="sv03"/>
      <point x="159" y="256"/>
      <point x="204" y="231"/>
      <point x="233" y="231" type="qcurve" name="sv04"/>
      <point x="260" y="231"/>
      <point x="311" y="252" name="fv01"/>
      <point x="331.0" y="270.0" type="qcurve" smooth="yes" name="inserted"/>
      <point x="351" y="288" name="fh05"/>
      <point x="378" y="335"/>
      <point x="382" y="361" type="qcurve" name="sh06"/>
      <point x="386" y="388"/>
      <point x="371" y="435" name="fh06"/>
      <point x="356.0" y="452.5" type="qcurve" smooth="yes" name="inserted"/>
      <point x="341" y="470" name="fh07"/>
      <point x="296" y="490"/>
      <point x="269" y="490" type="qcurve" name="iv01"/>
      <point x="256" y="490"/>
      <point x="230" y="482"/>
    </contour>
    <contour>
      <point x="401" y="-19" type="line" name="ih02"/>
      <point x="498" y="171"/>
      <point x="688" y="546"/>
      <point x="785" y="736" type="qcurve" name="sh08"/>
      <point x="827" y="736" type="line" name="sh07"/>
      <point x="730" y="546"/>
      <point x="540" y="171"/>
      <point x="443" y="-19" type="qcurve" name="sh09"/>
    </contour>
    <contour>
      <point x="853" y="30" type="line" name="sh11"/>
      <point x="910" y="30" type="line" name="sh10"/>
      <point x="925" y="136" type="line" name="ih03"/>
      <point x="684" y="136" type="line" name="sh13"/>
      <point x="1006" y="490" type="line" name="sh14"/>
      <point x="961" y="167" type="line" name="ih04"/>
      <point x="1033" y="167" type="line"/>
      <point x="1029" y="136" type="line" name="sh15"/>
      <point x="956" y="136" type="line" name="ih05"/>
      <point x="941" y="30" type="line" name="ah02"/>
      <point x="1003" y="30" type="line" name="sh16"/>
      <point x="999" y="0" type="line" name="ab01"/>
      <point x="849" y="0" type="line"/>
    </contour>
    <contour>
      <point x="962" y="398" type="line" name="sh12"/>
      <point x="752" y="167" type="line" name="sh17"/>
      <point x="930" y="167" type="line" name="ih06"/>
    </contour>
  </outline>
</glyph>
<glyph name="AE" format="1">
  <advance width="776"/>
  <unicode hex="00C6"/>
  <outline>
    <contour>
      <point x="763" y="546" type="line" name="sh01"/>
      <point x="779" y="660" type="line"/>
      <point x="532" y="660" type="line" name="sh04"/>
      <point x="492" y="373" type="line" name="ih02"/>
      <point x="740" y="373" type="line"/>
      <point x="734" y="333" type="line" name="ih03"/>
      <point x="486" y="333" type="line" name="sh03"/>
      <point x="445" y="40" type="line" name="sh05"/>
      <point x="706" y="40" type="line"/>
      <point x="722" y="154" type="line" name="sh06"/>
      <point x="762" y="154" type="line" name="ih04"/>
      <point x="741" y="0" type="line"/>
      <point x="398" y="0" type="line" name="dh01"/>
      <point x="439" y="295" type="line" name="ih05"/>
      <point x="305" y="295" type="line" name="ih06"/>
      <point x="269" y="231"/>
      <point x="197" y="104"/>
      <point x="160" y="40" type="qcurve" name="sh08"/>
      <point x="233" y="40" type="line" name="sh09"/>
      <point x="228" y="0" type="line"/>
      <point x="35" y="0" type="line" name="ab01"/>
      <point x="40" y="40" type="line" name="sh10"/>
      <point x="118" y="40" type="line" name="sh07"/>
      <point x="212" y="206"/>
      <point x="396" y="534"/>
      <point x="490" y="700" type="qcurve" name="sh11"/>
      <point x="825" y="700" type="line"/>
      <point x="803" y="546" type="line" name="dh02"/>
    </contour>
    <contour>
      <point x="445" y="335" type="line" name="ih01"/>
      <point x="485" y="619" type="line" name="sh02"/>
      <point x="450" y="547"/>
      <point x="367" y="406"/>
      <point x="327" y="335" type="qcurve" name="ih07"/>
    </contour>
  </outline>
</glyph>
<glyph name="Ccedilla" format="1">
  <advance width="610"/>
  <unicode hex="00C7"/>
  <outline>
    <contour>
      <point x="633" y="465" type="line" name="sh01"/>
      <point x="656" y="632" type="line" name="sh02"/>
      <point x="627" y="649" name="fh01"/>
      <point x="556" y="668"/>
      <point x="518" y="668" type="qcurve" name="sv01"/>
      <point x="453" y="668"/>
      <point x="331" y="617" name="fv01"/>
      <point x="282.0" y="573.5" type="qcurve" smooth="yes" name="inserted"/>
      <point x="233" y="530" name="fh02"/>
      <point x="167" y="414" name="fh03"/>
      <point x="158" y="348" type="qcurve" name="sh03"/>
      <point x="149" y="283"/>
      <point x="182" y="168" name="fh04"/>
      <point x="218.5" y="125.0" type="qcurve" smooth="yes" name="inserted"/>
      <point x="255" y="82" name="fh05"/>
      <point x="362" y="32"/>
      <point x="427" y="32" type="qcurve" name="sv02"/>
      <point x="472" y="32"/>
      <point x="555" y="55"/>
      <point x="593" y="76" type="qcurve" name="sv03"/>
      <point x="613" y="42" type="line" name="ih01"/>
      <point x="570" y="19" name="fh06"/>
      <point x="478" y="-7"/>
      <point x="429" y="-8" type="qcurve" name="sh04"/>
      <point x="428.0" y="-13.5" name="inserted"/>
      <point x="428.0" y="-20.0"/>
      <point x="429" y="-21" type="qcurve"/>
      <point x="431" y="-39"/>
      <point x="453" y="-54"/>
      <point x="463" y="-61" type="qcurve"/>
      <point x="483" y="-76"/>
      <point x="496" y="-115"/>
      <point x="493" y="-133" type="qcurve" name="sh05"/>
      <point x="486" y="-181" name="fh07"/>
      <point x="428" y="-234" name="fh08"/>
      <point x="387" y="-234" type="qcurve" name="av01"/>
      <point x="358" y="-234"/>
      <point x="312" y="-202"/>
      <point x="306" y="-169" type="qcurve" name="sh06"/>
      <point x="334" y="-157" type="line" name="sv04"/>
      <point x="337" y="-176" name="sh07"/>
      <point x="365" y="-201"/>
      <point x="388" y="-201" type="qcurve" name="sv05"/>
      <point x="416" y="-201" name="fh09"/>
      <point x="456" y="-163"/>
      <point x="460" y="-135" type="qcurve" name="sh08"/>
      <point x="463" y="-110"/>
      <point x="443" y="-83"/>
      <point x="430.0" y="-73.0" type="qcurve" smooth="yes" name="inserted"/>
      <point x="417" y="-63"/>
      <point x="395" y="-42"/>
      <point x="398" y="-23" type="qcurve"/>
      <point x="400" y="-7" type="line" name="ih02"/>
      <point x="331" y="-3"/>
      <point x="217" y="56" name="fh10"/>
      <point x="179.0" y="104.0" type="qcurve" smooth="yes" name="inserted"/>
      <point x="141" y="152" name="fh11"/>
      <point x="107" y="278"/>
      <point x="117" y="349" type="qcurve" name="dh01"/>
      <point x="127" y="423" name="fh12"/>
      <point x="202" y="554" name="fh13"/>
      <point x="257.0" y="602.5" type="qcurve" smooth="yes" name="inserted"/>
      <point x="312" y="651" name="fh14"/>
      <point x="450" y="708"/>
      <point x="524" y="708" type="qcurve" name="at01"/>
      <point x="575" y="708"/>
      <point x="663" y="682"/>
      <point x="700" y="658" type="qcurve" name="sh09"/>
      <point x="673" y="465" type="line" name="dh02"/>
    </contour>
  </outline>
</glyph>
<glyph name="Eth" format="1">
  <advance width="632"/>
  <unicode hex="00D0"/>
  <outline>
    <contour>
      <point x="96" y="372" type="line"/>
      <point x="149" y="372" type="line" name="ih01"/>
      <point x="190" y="660" type="line" name="sh01"/>
      <point x="127" y="660" type="line" name="sh02"/>
      <point x="133" y="700" type="line" name="at01"/>
      <point x="343" y="700" type="line"/>
      <point x="415" y="700"/>
      <point x="536" y="651" name="fh01"/>
      <point x="577.5" y="605.5" type="qcurve" smooth="yes" name="inserted"/>
      <point x="619" y="560" name="fh02"/>
      <point x="657" y="430"/>
      <point x="646" y="350" type="qcurve" name="dh02"/>
      <point x="637" y="291"/>
      <point x="579" y="167" name="fh03"/>
      <point x="526.0" y="116.0" type="qcurve" smooth="yes" name="inserted"/>
      <point x="473" y="65" name="fv01"/>
      <point x="317" y="0"/>
      <point x="211" y="0" type="qcurve"/>
      <point x="35" y="0" type="line" name="ab01"/>
      <point x="40" y="40" type="line" name="sh03"/>
      <point x="103" y="40" type="line" name="dh01"/>
      <point x="144" y="331" type="line" name="ih02"/>
      <point x="90" y="331" type="line" name="sh04"/>
    </contour>
    <contour>
      <point x="232" y="660" type="line" name="sh06"/>
      <point x="191" y="372" type="line" name="ih03"/>
      <point x="398" y="372" type="line"/>
      <point x="392" y="331" type="line" name="sh07"/>
      <point x="185" y="331" type="line" name="ih04"/>
      <point x="145" y="41" type="line" name="sh05"/>
      <point x="232" y="41" type="line"/>
      <point x="315" y="41"/>
      <point x="446" y="94" name="fh04"/>
      <point x="493.0" y="137.0" type="qcurve" smooth="yes" name="inserted"/>
      <point x="540" y="180" name="fh05"/>
      <point x="597" y="291"/>
      <point x="605" y="350" type="qcurve" name="sh08"/>
      <point x="615" y="421"/>
      <point x="582" y="536" name="fh06"/>
      <point x="545.0" y="576.5" type="qcurve" smooth="yes" name="inserted"/>
      <point x="508" y="617" name="fh07"/>
      <point x="401" y="660"/>
      <point x="337" y="660" type="qcurve"/>
    </contour>
  </outline>
</glyph>
<glyph name="multiply" format="1">
  <advance width="500"/>
  <unicode hex="00D7"/>
  <outline>
    <contour>
      <point x="377" y="0" type="line" name="sv01"/>
      <point x="351" y="29"/>
      <point x="303" y="84" name="fh01"/>
      <point x="279" y="113" type="qcurve" name="iv01"/>
      <point x="247.5" y="85.5" name="inserted"/>
      <point x="183.5" y="29.0"/>
      <point x="151" y="0" type="qcurve" name="ab01"/>
      <point x="145" y="8"/>
      <point x="131" y="22"/>
      <point x="126" y="29" type="qcurve" name="ah01"/>
      <point x="158" y="58"/>
      <point x="222" y="113"/>
      <point x="254" y="142" type="qcurve" name="ih01"/>
      <point x="157" y="254" type="line" name="sh02"/>
      <point x="192" y="284" type="line" name="sv02"/>
      <point x="288" y="172" type="line" name="iv02"/>
      <point x="320" y="201"/>
      <point x="384" y="255" name="fv01"/>
      <point x="416" y="284" type="qcurve" name="sv03"/>
      <point x="422" y="277"/>
      <point x="435" y="262"/>
      <point x="441" y="255" type="qcurve" name="sh01"/>
      <point x="409" y="227"/>
      <point x="345" y="171"/>
      <point x="313" y="143" type="qcurve" name="ih02"/>
      <point x="337" y="114"/>
      <point x="385" y="58"/>
      <point x="410" y="30" type="qcurve" name="sh03"/>
    </contour>
  </outline>
</glyph>
<glyph name="Oslash" format="1">
  <advance width="786"/>
  <unicode hex="00D8"/>
  <outline>
    <contour>
      <point x="127" y="348" type="qcurve" name="sh01"/>
      <point x="117" y="282"/>
      <point x="151" y="166" name="fh01"/>
      <point x="189" y="123" type="qcurve" name="ih01"/>
      <point x="309" y="245"/>
      <point x="544" y="485"/>
      <point x="664" y="606" type="qcurve" name="ih02"/>
      <point x="629" y="635" name="fh02"/>
      <point x="539" y="668"/>
      <point x="487" y="668" type="qcurve" name="sv02"/>
      <point x="422" y="668"/>
      <point x="300" y="617" name="fv01"/>
      <point x="251.0" y="573.5" type="qcurve" smooth="yes" name="inserted"/>
      <point x="202" y="530" name="fh03"/>
      <point x="136" y="414" name="fh04"/>
    </contour>
    <contour>
      <point x="396" y="32" type="qcurve" name="sv01"/>
      <point x="461" y="32"/>
      <point x="584" y="82" name="fh05"/>
      <point x="633.5" y="125.0" type="qcurve" smooth="yes" name="inserted"/>
      <point x="683" y="168" name="fh06"/>
      <point x="751" y="283"/>
      <point x="760" y="349" type="qcurve" name="sh02"/>
      <point x="770" y="418"/>
      <point x="731" y="537" name="fh07"/>
      <point x="689" y="581" type="qcurve" name="ih03"/>
      <point x="569" y="460" name="fh08"/>
      <point x="334" y="219"/>
      <point x="214" y="98" type="qcurve" name="ih04"/>
      <point x="249" y="66" name="fh09"/>
      <point x="341" y="32"/>
    </contour>
    <contour>
      <point x="85" y="349" type="qcurve" name="dh01"/>
      <point x="95" y="423"/>
      <point x="170" y="554" name="fh10"/>
      <point x="225.0" y="602.5" type="qcurve" smooth="yes" name="inserted"/>
      <point x="280" y="651" name="fh11"/>
      <point x="418" y="708"/>
      <point x="492" y="708" type="qcurve" name="at01"/>
      <point x="552" y="708"/>
      <point x="655" y="671" name="fh12"/>
      <point x="696" y="637" type="qcurve" name="ih05"/>
      <point x="714" y="656"/>
      <point x="751" y="693"/>
      <point x="769" y="712" type="qcurve" name="sv03"/>
      <point x="775.5" y="706.0" name="inserted"/>
      <point x="788.0" y="693.5"/>
      <point x="794" y="687" type="qcurve" name="sh03"/>
      <point x="775" y="668"/>
      <point x="739" y="632"/>
      <point x="721" y="613" type="qcurve" name="ih06"/>
      <point x="768" y="564" name="fh13"/>
      <point x="812" y="427"/>
      <point x="801" y="349" type="qcurve" name="dh02"/>
      <point x="790" y="275"/>
      <point x="716" y="145" name="fh14"/>
      <point x="660.5" y="96.5" type="qcurve" smooth="yes" name="inserted"/>
      <point x="605" y="48" name="fh15"/>
      <point x="466" y="-8"/>
      <point x="392" y="-8" type="qcurve" name="ab01"/>
      <point x="330" y="-8"/>
      <point x="224" y="32"/>
      <point x="183" y="67" type="qcurve" name="ih07"/>
      <point x="164" y="47"/>
      <point x="126" y="8"/>
      <point x="106" y="-12" type="qcurve" name="sv04"/>
      <point x="100" y="-5"/>
      <point x="87" y="7"/>
      <point x="81" y="14" type="qcurve" name="sh04"/>
      <point x="101" y="34"/>
      <point x="138" y="72"/>
      <point x="158" y="92" type="qcurve" name="ih08"/>
      <point x="114" y="141" name="fh16"/>
      <point x="74" y="273"/>
    </contour>
  </outline>
</glyph>
<glyph name="germandbls" format="1">
  <advance width="549"/>
  <unicode hex="00DF"/>
  <outline>
    <contour>
      <point x="42" y="40" type="line" name="sh01"/>
      <point x="115" y="40" type="line" name="dh01"/>
      <point x="160" y="356" type="line" name="ih01"/>
      <point x="97" y="356" type="line" name="sh03"/>
      <point x="102" y="396" type="line"/>
      <point x="165" y="396" type="line" name="ih02"/>
      <point x="169" y="425" type="line" name="sh02"/>
      <point x="177" y="480"/>
      <point x="221" y="566" name="fh01"/>
      <point x="251.5" y="595.5" type="qcurve" smooth="yes" name="inserted"/>
      <point x="282" y="625" name="fh02"/>
      <point x="358" y="657"/>
      <point x="397" y="658" type="qcurve" name="at01"/>
      <point x="428" y="657"/>
      <point x="478" y="633" name="fh03"/>
      <point x="495.5" y="612.5" type="qcurve" smooth="yes" name="inserted"/>
      <point x="513" y="592" name="fh04"/>
      <point x="528" y="538"/>
      <point x="524" y="507" type="qcurve" name="ih03"/>
      <point x="519" y="469"/>
      <point x="469" y="406" name="fh05"/>
      <point x="434" y="389" type="qcurve" name="ih05"/>
      <point x="462" y="379"/>
      <point x="506" y="342" name="fh06"/>
      <point x="520.5" y="317.5" type="qcurve" smooth="yes" name="inserted"/>
      <point x="535" y="293" name="fh07"/>
      <point x="547" y="233"/>
      <point x="543" y="200" type="qcurve" name="dh02"/>
      <point x="537" y="157" name="fh08"/>
      <point x="492" y="81" name="fh09"/>
      <point x="459.5" y="53.0" type="qcurve" smooth="yes" name="inserted"/>
      <point x="427" y="25" name="fh10"/>
      <point x="346" y="-8"/>
      <point x="303" y="-8" type="qcurve" name="ab01"/>
      <point x="276.5" y="-8.0" name="inserted"/>
      <point x="229.0" y="4.5"/>
      <point x="208" y="17" type="qcurve" name="ih06"/>
      <point x="230" y="53" type="line"/>
      <point x="246.5" y="42.5" name="inserted"/>
      <point x="285.0" y="32.0"/>
      <point x="307" y="32" type="qcurve" name="sv01"/>
      <point x="342" y="32"/>
      <point x="408" y="59" name="fh11"/>
      <point x="434.5" y="82.0" type="qcurve" smooth="yes" name="inserted"/>
      <point x="461" y="105"/>
      <point x="496" y="166"/>
      <point x="501" y="200" type="qcurve" name="sh07"/>
      <point x="505" y="234"/>
      <point x="487" y="294"/>
      <point x="467.0" y="316.5" type="qcurve" smooth="yes" name="inserted"/>
      <point x="447" y="339" name="fh12"/>
      <point x="389" y="365"/>
      <point x="355" y="365" type="qcurve" name="ih04"/>
      <point x="356" y="370"/>
      <point x="356" y="380"/>
      <point x="357" y="386" type="qcurve"/>
      <point x="360" y="407" type="line" name="iv01"/>
      <point x="382" y="407"/>
      <point x="424" y="421" name="fh13"/>
      <point x="440.5" y="434.0" type="qcurve" smooth="yes" name="inserted"/>
      <point x="457" y="447" name="fh14"/>
      <point x="479" y="483"/>
      <point x="482" y="505" type="qcurve" name="sh06"/>
      <point x="485" y="527"/>
      <point x="475" y="567" name="fh15"/>
      <point x="463.0" y="583.0" type="qcurve" smooth="yes" name="inserted"/>
      <point x="451" y="599" name="fh16"/>
      <point x="415" y="617"/>
      <point x="392" y="617" type="qcurve" name="sv02"/>
      <point x="360" y="617"/>
      <point x="300" y="590" name="fv01"/>
      <point x="275.5" y="565.0" type="qcurve" smooth="yes" name="inserted"/>
      <point x="251" y="540" name="fh17"/>
      <point x="217" y="469"/>
      <point x="211" y="425" type="qcurve" name="sh04"/>
      <point x="151" y="0" type="line" name="sh05"/>
      <point x="36" y="0" type="line"/>
    </contour>
  </outline>
</glyph>
<glyph name="ae" format="1">
  <advance width="593"/>
  <unicode hex="00E6"/>
  <outline>
    <contour>
      <point x="383" y="241" type="qcurve"/>
      <point x="378" y="203" type="line" name="ih02"/>
      <point x="420" y="218"/>
      <point x="501" y="249"/>
      <point x="543" y="264" type="qcurve" name="sh01"/>
      <point x="530" y="299" name="fv01"/>
      <point x="473" y="341" name="fh01"/>
      <point x="435" y="341" type="qcurve" name="sv01"/>
      <point x="418" y="341"/>
      <point x="387" y="334"/>
      <point x="373" y="329" type="qcurve" name="ih04"/>
      <point x="384" y="315"/>
      <point x="388" y="272" name="ih01"/>
    </contour>
    <contour>
      <point x="330" y="160" type="line" name="sh03"/>
      <point x="251" y="160" type="line"/>
      <point x="236" y="160"/>
      <point x="185" y="160"/>
      <point x="159.5" y="154.5" type="qcurve" smooth="yes" name="inserted"/>
      <point x="134" y="149"/>
      <point x="95" y="125"/>
      <point x="92" y="101" type="qcurve" name="sh04"/>
      <point x="89" y="79"/>
      <point x="107" y="52" name="fh02"/>
      <point x="123.0" y="44.5" type="qcurve" smooth="yes" name="inserted"/>
      <point x="139" y="37"/>
      <point x="180" y="31"/>
      <point x="199" y="31" type="qcurve" name="sv02"/>
      <point x="218" y="31"/>
      <point x="259" y="37"/>
      <point x="276.5" y="45.0" type="qcurve" smooth="yes" name="inserted"/>
      <point x="294" y="53"/>
      <point x="319" y="82"/>
      <point x="322" y="106" type="qcurve"/>
    </contour>
    <contour>
      <point x="130" y="309" type="qcurve" name="sv03"/>
      <point x="125" y="316"/>
      <point x="114" y="330"/>
      <point x="108" y="337" type="qcurve" name="ih03"/>
      <point x="120" y="346"/>
      <point x="153" y="363" name="fh03"/>
      <point x="172.0" y="369.0" type="qcurve" smooth="yes" name="inserted"/>
      <point x="191" y="375"/>
      <point x="231" y="382"/>
      <point x="248" y="382" type="qcurve" name="at01"/>
      <point x="285.0" y="382.0" name="inserted"/>
      <point x="337.5" y="372.5"/>
      <point x="353" y="363" type="qcurve" name="ih05"/>
      <point x="375.0" y="372.5" name="inserted"/>
      <point x="419.0" y="382.0"/>
      <point x="441" y="382" type="qcurve" name="at02"/>
      <point x="471" y="382"/>
      <point x="522" y="361" name="fh04"/>
      <point x="541.5" y="342.0" type="qcurve" smooth="yes" name="inserted"/>
      <point x="561" y="323" name="fh05"/>
      <point x="588" y="272" name="dh02"/>
      <point x="593" y="241" type="qcurve" name="sv04"/>
      <point x="537" y="221"/>
      <point x="427" y="179"/>
      <point x="372" y="159" type="qcurve" name="sh05"/>
      <point x="367" y="128" type="line"/>
      <point x="363" y="99"/>
      <point x="346" y="60"/>
      <point x="329" y="45" type="qcurve" name="ih06"/>
      <point x="342.0" y="38.5" name="inserted"/>
      <point x="373.5" y="32.0"/>
      <point x="392" y="32" type="qcurve" name="sv05"/>
      <point x="423" y="32"/>
      <point x="480" y="54"/>
      <point x="503" y="74" type="qcurve" name="sv06"/>
      <point x="524" y="44" type="line" name="ih07"/>
      <point x="495" y="19" name="fv02"/>
      <point x="425" y="-9"/>
      <point x="386" y="-9" type="qcurve" name="ab01"/>
      <point x="361.0" y="-9.0" name="inserted"/>
      <point x="317.5" y="1.5"/>
      <point x="299" y="12" type="qcurve" name="ih08"/>
      <point x="280.0" y="1.0" name="inserted"/>
      <point x="227.0" y="-10.0"/>
      <point x="193" y="-10" type="qcurve" name="ab02"/>
      <point x="157" y="-10"/>
      <point x="100" y="1" name="fh06"/>
      <point x="81.0" y="13.5" type="qcurve" smooth="yes" name="inserted"/>
      <point x="62" y="26" name="fh07"/>
      <point x="45" y="69"/>
      <point x="50" y="102" type="qcurve" name="dh01"/>
      <point x="54" y="130" name="fh08"/>
      <point x="85" y="169" name="fh09"/>
      <point x="107.5" y="181.0" type="qcurve" smooth="yes" name="inserted"/>
      <point x="130" y="193"/>
      <point x="184" y="203"/>
      <point x="213" y="203" type="qcurve"/>
      <point x="336" y="203" type="line" name="sh02"/>
      <point x="341" y="243" type="line"/>
      <point x="345" y="268" name="sh06"/>
      <point x="342" y="305"/>
      <point x="331.5" y="317.0" type="qcurve" smooth="yes" name="inserted"/>
      <point x="321" y="329" name="fh10"/>
      <point x="278" y="341"/>
      <point x="241" y="341" type="qcurve" name="sv07"/>
      <point x="227" y="341"/>
      <point x="196" y="335"/>
      <point x="180.5" y="330.5" type="qcurve" smooth="yes" name="inserted"/>
      <point x="165" y="326"/>
      <point x="139" y="315"/>
    </contour>
  </outline>
</glyph>
<glyph name="ccedilla" format="1">
  <advance width="391"/>
  <unicode hex="00E7"/>
  <outline>
    <contour>
      <point x="328" y="67" type="qcurve" name="sv01"/>
      <point x="349" y="36" type="line" name="ih01"/>
      <point x="343" y="31"/>
      <point x="308" y="14"/>
      <point x="288.0" y="6.0" type="qcurve" smooth="yes" name="inserted"/>
      <point x="268" y="-2"/>
      <point x="232" y="-12"/>
      <point x="225" y="-10" type="qcurve" name="sh01"/>
      <point x="223" y="-22"/>
      <point x="230" y="-38"/>
      <point x="235.0" y="-43.5" type="qcurve" smooth="yes" name="inserted"/>
      <point x="240" y="-49"/>
      <point x="254" y="-57"/>
      <point x="260" y="-61" type="qcurve" name="fh01"/>
      <point x="280" y="-76"/>
      <point x="292" y="-115"/>
      <point x="289" y="-133" type="qcurve" name="sh02"/>
      <point x="283" y="-178"/>
      <point x="232" y="-226"/>
      <point x="198" y="-231" type="qcurve" name="av01"/>
      <point x="188.5" y="-232.5" name="inserted"/>
      <point x="171.0" y="-232.0"/>
      <point x="163" y="-230" type="qcurve"/>
      <point x="140" y="-226"/>
      <point x="107" y="-196"/>
      <point x="102" y="-169" type="qcurve" name="sh03"/>
      <point x="131" y="-157" type="line" name="sv02"/>
      <point x="134" y="-177" name="sh04"/>
      <point x="162" y="-201"/>
      <point x="185" y="-201" type="qcurve" name="sv03"/>
      <point x="213" y="-201" name="fh02"/>
      <point x="252" y="-163"/>
      <point x="256" y="-135" type="qcurve" name="sh05"/>
      <point x="259" y="-110"/>
      <point x="239" y="-83"/>
      <point x="226.0" y="-73.0" type="qcurve" smooth="yes" name="inserted"/>
      <point x="213" y="-63"/>
      <point x="192" y="-42"/>
      <point x="194" y="-23" type="qcurve"/>
      <point x="197" y="-4" type="line" name="ih02"/>
      <point x="161" y="0"/>
      <point x="102" y="32" name="fh03"/>
      <point x="82.5" y="57.5" type="qcurve" smooth="yes" name="inserted"/>
      <point x="63" y="83"/>
      <point x="46" y="150"/>
      <point x="51" y="188" type="qcurve" name="dh01"/>
      <point x="57" y="228"/>
      <point x="97" y="300" name="fh04"/>
      <point x="127.5" y="326.0" type="qcurve" smooth="yes" name="inserted"/>
      <point x="158" y="352" name="fh05"/>
      <point x="234" y="383"/>
      <point x="275" y="383" type="qcurve" name="at01"/>
      <point x="310" y="383"/>
      <point x="371" y="360"/>
      <point x="393" y="340" type="qcurve" name="sh06"/>
      <point x="380" y="241" type="line" name="dh02"/>
      <point x="341" y="241" type="line" name="sh07"/>
      <point x="351" y="316" type="line" name="sh08"/>
      <point x="333.5" y="329.5" name="inserted"/>
      <point x="292.5" y="343.0"/>
      <point x="269" y="343" type="qcurve" name="sv04"/>
      <point x="236" y="343"/>
      <point x="176" y="319"/>
      <point x="152.5" y="298.0" type="qcurve" smooth="yes" name="inserted"/>
      <point x="129" y="277" name="fh06"/>
      <point x="97" y="220"/>
      <point x="93" y="188" type="qcurve" name="sh09"/>
      <point x="88" y="156"/>
      <point x="104" y="100" name="fh07"/>
      <point x="121.5" y="79.0" type="qcurve" smooth="yes" name="inserted"/>
      <point x="139" y="58" name="fh08"/>
      <point x="192" y="34"/>
      <point x="225" y="34" type="qcurve" name="sv05"/>
      <point x="253.0" y="34.0" name="inserted"/>
      <point x="304.5" y="50.5"/>
    </contour>
  </outline>
</glyph>
<glyph name="eth" format="1">
  <advance width="464"/>
  <unicode hex="00F0"/>
  <outline>
    <contour>
      <point x="104" y="188" type="qcurve" name="sh01"/>
      <point x="99" y="156"/>
      <point x="115" y="100" name="fh01"/>
      <point x="133.0" y="79.0" type="qcurve" smooth="yes" name="inserted"/>
      <point x="151" y="58" name="fh02"/>
      <point x="205" y="35"/>
      <point x="238" y="35" type="qcurve" name="sv01"/>
      <point x="271" y="35"/>
      <point x="331" y="60" name="fh03"/>
      <point x="355.0" y="81.0" type="qcurve" smooth="yes" name="inserted"/>
      <point x="379" y="102"/>
      <point x="410" y="158"/>
      <point x="415" y="190" type="qcurve" name="sh02"/>
      <point x="419" y="223"/>
      <point x="402" y="279"/>
      <point x="384.0" y="300.0" type="qcurve" smooth="yes" name="inserted"/>
      <point x="366" y="321" name="fh04"/>
      <point x="312" y="344"/>
      <point x="279" y="344" type="qcurve" name="sv02"/>
      <point x="246" y="344"/>
      <point x="186" y="319"/>
      <point x="162.5" y="298.0" type="qcurve" smooth="yes" name="inserted"/>
      <point x="139" y="277" name="fh05"/>
      <point x="108" y="220"/>
    </contour>
    <contour>
      <point x="199" y="541" type="qcurve" name="sh03"/>
      <point x="219" y="559"/>
      <point x="258" y="596"/>
      <point x="278" y="614" type="qcurve" name="ih02"/>
      <point x="258.5" y="639.0" name="inserted"/>
      <point x="218.0" y="683.5"/>
      <point x="197" y="703" type="qcurve" name="ih01"/>
      <point x="205" y="710"/>
      <point x="221" y="724"/>
      <point x="229" y="731" type="qcurve" name="sh04"/>
      <point x="250.0" y="713.0" name="inserted"/>
      <point x="291.0" y="669.5"/>
      <point x="311" y="644" type="qcurve" name="ih04"/>
      <point x="328" y="661"/>
      <point x="363" y="693"/>
      <point x="380" y="710" type="qcurve" name="sv03"/>
      <point x="386" y="704"/>
      <point x="398" y="692"/>
      <point x="405" y="686" type="qcurve" name="sh05"/>
      <point x="385" y="668"/>
      <point x="349" y="633"/>
      <point x="330" y="615" type="qcurve" name="ih03"/>
      <point x="361" y="570" name="fh06"/>
      <point x="413" y="465"/>
      <point x="431.0" y="410.0" type="qcurve" smooth="yes" name="inserted"/>
      <point x="449" y="355"/>
      <point x="463" y="244"/>
      <point x="456" y="192" type="qcurve" name="dh02"/>
      <point x="451" y="151"/>
      <point x="411" y="80" name="fh07"/>
      <point x="381.0" y="53.0" type="qcurve" smooth="yes" name="inserted"/>
      <point x="351" y="26" name="fh08"/>
      <point x="275" y="-5"/>
      <point x="234" y="-6" type="qcurve" name="ab01"/>
      <point x="193" y="-6"/>
      <point x="125" y="23" name="fh09"/>
      <point x="102.0" y="49.5" type="qcurve" smooth="yes" name="inserted"/>
      <point x="79" y="76" name="fh10"/>
      <point x="57" y="146"/>
      <point x="62" y="187" type="qcurve" name="dh01"/>
      <point x="67" y="227"/>
      <point x="107" y="299" name="fh11"/>
      <point x="137.0" y="325.5" type="qcurve" smooth="yes" name="inserted"/>
      <point x="167" y="352" name="fh12"/>
      <point x="243" y="384"/>
      <point x="284" y="384" type="qcurve" name="at01"/>
      <point x="321" y="385"/>
      <point x="381" y="354" name="fh13"/>
      <point x="400" y="328" type="qcurve" name="ih05"/>
      <point x="393" y="378" name="fh14"/>
      <point x="346" y="511" name="fh15"/>
      <point x="297" y="583" type="qcurve" name="ih06"/>
      <point x="279" y="566"/>
      <point x="242" y="532"/>
      <point x="224" y="515" type="qcurve" name="sv04"/>
      <point x="218" y="522"/>
      <point x="206" y="534"/>
    </contour>
  </outline>
</glyph>
<glyph name="thorn" format="1">
  <advance width="503"/>
  <unicode hex="00FE"/>
  <outline>
    <contour>
      <point x="-48" y="-210" type="line" name="sh01"/>
      <point x="28" y="-210" type="line" name="dh01"/>
      <point x="157" y="710" type="line" name="sh02"/>
      <point x="80" y="710" type="line" name="sh03"/>
      <point x="86" y="750" type="line" name="at01"/>
      <point x="279" y="750" type="line"/>
      <point x="274" y="710" type="line" name="sh06"/>
      <point x="199" y="710" type="line" name="sh05"/>
      <point x="146" y="337" type="line"/>
      <point x="144" y="324"/>
      <point x="137" y="298"/>
      <point x="134" y="286" type="qcurve" name="ih01"/>
      <point x="144" y="304"/>
      <point x="179" y="338" name="fh01"/>
      <point x="202.0" y="351.5" type="qcurve" smooth="yes" name="inserted"/>
      <point x="225" y="365"/>
      <point x="279" y="381"/>
      <point x="308" y="381" type="qcurve" name="at02"/>
      <point x="349" y="381"/>
      <point x="417" y="350" name="fh02"/>
      <point x="439.5" y="324.0" type="qcurve" smooth="yes" name="inserted"/>
      <point x="462" y="298" name="fh03"/>
      <point x="483" y="227"/>
      <point x="478" y="187" type="qcurve" name="dh02"/>
      <point x="472" y="147"/>
      <point x="431" y="76" name="fh04"/>
      <point x="400.5" y="49.5" type="qcurve" smooth="yes" name="inserted"/>
      <point x="370" y="23" name="fh05"/>
      <point x="294" y="-8"/>
      <point x="253" y="-8" type="qcurve" name="ab02"/>
      <point x="223" y="-8"/>
      <point x="174" y="8" name="fh06"/>
      <point x="155.5" y="20.5" type="qcurve" smooth="yes" name="inserted"/>
      <point x="137" y="33" name="fh07"/>
      <point x="112" y="66"/>
      <point x="108" y="84" type="qcurve" name="ih02"/>
      <point x="107" y="74"/>
      <point x="106" y="54"/>
      <point x="106" y="44" type="qcurve"/>
      <point x="70" y="-210" type="line" name="sh04"/>
      <point x="152" y="-210" type="line" name="sh07"/>
      <point x="146" y="-250" type="line"/>
      <point x="-54" y="-250" type="line" name="ab01"/>
    </contour>
    <contour>
      <point x="436" y="187" type="qcurve" name="sh08"/>
      <point x="440" y="220"/>
      <point x="424" y="276"/>
      <point x="406.0" y="296.5" type="qcurve" smooth="yes" name="inserted"/>
      <point x="388" y="317" name="fh08"/>
      <point x="335" y="341"/>
      <point x="302" y="341" type="qcurve" name="sv01"/>
      <point x="269" y="341"/>
      <point x="210" y="317" name="fh09"/>
      <point x="186.0" y="296.5" type="qcurve" smooth="yes" name="inserted"/>
      <point x="162" y="276"/>
      <point x="130" y="220"/>
      <point x="126" y="187" type="qcurve" name="ih03"/>
      <point x="121" y="155"/>
      <point x="137" y="98" name="fh10"/>
      <point x="155.0" y="77.0" type="qcurve" smooth="yes" name="inserted"/>
      <point x="173" y="56" name="fh11"/>
      <point x="226" y="32"/>
      <point x="259" y="32" type="qcurve" name="sv02"/>
      <point x="292" y="32"/>
      <point x="352" y="56"/>
      <point x="376.0" y="77.0" type="qcurve" smooth="yes" name="inserted"/>
      <point x="400" y="98"/>
      <point x="431" y="155" name="fv01"/>
    </contour>
  </outline>
</glyph>
<glyph name="quotedblright" format="1">
  <advance width="248"/>
  <unicode hex="201D"/>
  <outline>
    <contour>
      <point x="51" y="570" type="qcurve" name="sv01"/>
      <point x="46" y="575"/>
      <point x="38" y="585"/>
      <point x="33" y="590" type="qcurve" name="sh02"/>
      <point x="57" y="610"/>
      <point x="84" y="669"/>
      <point x="82" y="704" type="qcurve" name="sh03"/>
      <point x="90" y="706"/>
      <point x="107" y="709"/>
      <point x="115" y="711" type="qcurve" name="sh01"/>
      <point x="118" y="670"/>
      <point x="83" y="596"/>
    </contour>
    <contour>
      <point x="155" y="570" type="qcurve" name="sv02"/>
      <point x="150" y="575"/>
      <point x="142" y="585"/>
      <point x="137" y="590" type="qcurve" name="sh04"/>
      <point x="161" y="610"/>
      <point x="188" y="669"/>
      <point x="186" y="704" type="qcurve" name="sh05"/>
      <point x="194" y="706"/>
      <point x="211" y="709"/>
      <point x="219" y="711" type="qcurve" name="ah01"/>
      <point x="222" y="670"/>
      <point x="187" y="596"/>
    </contour>
  </outline>
</glyph>
<glyph name="guilsinglright" format="1">
  <advance width="392"/>
  <unicode hex="203A"/>
  <outline>
    <contour>
      <point x="123" y="125" type="line" name="sv01"/>
      <point x="155" y="154"/>
      <point x="218" y="210"/>
      <point x="250" y="239" type="qcurve" name="sh01"/>
      <point x="227" y="268"/>
      <point x="179" y="323"/>
      <point x="156" y="352" type="qcurve" name="sv02"/>
      <point x="162" y="400" type="line" name="sh02"/>
      <point x="199" y="359"/>
      <point x="273" y="280"/>
      <point x="310" y="239" type="qcurve" name="ah01"/>
      <point x="117" y="77" type="line" name="sh03"/>
    </contour>
  </outline>
</glyph>
